<?xml version="1.0" encoding="utf-8"?>
<!-- Generator: Adobe Illustrator 16.0.0, SVG Export Plug-In . SVG Version: 6.00 Build 0)  -->
<!DOCTYPE svg PUBLIC "-//W3C//DTD SVG 1.1//EN" "http://www.w3.org/Graphics/SVG/1.1/DTD/svg11.dtd">
<svg version="1.1" id="Layer_1" xmlns="http://www.w3.org/2000/svg" xmlns:xlink="http://www.w3.org/1999/xlink" x="0px" y="0px"
	 width="500px" height="200px" viewBox="0 0 500 200" enable-background="new 0 0 500 200" xml:space="preserve">
<g id="GD">
	<g>
		<rect x="277.644" y="22.623" opacity="0.5" fill="#231F20" enable-background="new    " width="146.849" height="90.505"/>
		<g opacity="0.5">
			<g>
				
					<rect x="320.42" y="78.775" fill="none" stroke="#FFFFFF" stroke-width="0.339" stroke-miterlimit="10" width="13.229" height="13.23"/>
				
					<rect x="312.336" y="78.775" fill="none" stroke="#FFFFFF" stroke-width="0.339" stroke-miterlimit="10" width="8.084" height="8.084"/>
				
					<rect x="312.336" y="92.005" fill="none" stroke="#FFFFFF" stroke-width="0.339" stroke-miterlimit="10" width="21.313" height="21.315"/>
				
					<rect x="277.644" y="78.775" fill="none" stroke="#FFFFFF" stroke-width="0.339" stroke-miterlimit="10" width="34.692" height="34.691"/>
				
					<rect x="277.644" y="22.623" fill="none" stroke="#FFFFFF" stroke-width="0.339" stroke-miterlimit="10" width="56.152" height="56.153"/>
				
					<rect x="333.649" y="22.623" fill="none" stroke="#FFFFFF" stroke-width="0.339" stroke-miterlimit="10" width="90.844" height="90.844"/>
			</g>
			<g>
				<path fill="#FFFFFF" d="M423.766,113.017c0,0-0.002-1.428-0.208-4.095c-0.209-2.665-0.622-6.571-1.52-11.481
					c-0.911-4.903-2.296-10.822-4.603-17.378c-2.309-6.543-5.538-13.745-10.22-20.896c-4.668-7.139-10.898-14.176-18.803-19.954
					c-3.94-2.895-8.301-5.436-12.951-7.607c-4.67-2.133-9.644-3.861-14.815-5.165c-5.17-1.313-10.55-2.144-16.02-2.62
					c-1.368-0.107-2.74-0.236-4.121-0.281c-1.38-0.066-2.762-0.141-4.151-0.142c-2.775-0.079-5.573,0.001-8.35,0.228
					c-2.784,0.265-5.559,0.704-8.304,1.318c-2.742,0.636-5.44,1.48-8.072,2.504c-2.64,1.012-5.177,2.289-7.617,3.723
					c-2.435,1.442-4.771,3.067-6.92,4.916c-2.161,1.833-4.174,3.839-6.007,5.998c-1.815,2.172-3.435,4.503-4.868,6.935
					c-1.449,2.426-2.632,4.997-3.647,7.616c-1.03,2.617-1.808,5.321-2.412,8.047c-1.222,5.455-1.634,11.038-1.437,16.509
					c0.265,5.452,1.548,10.846,4.182,15.463c2.605,4.634,6.545,8.326,10.986,10.843c4.448,2.538,9.329,4.013,14.146,4.744
					c2.418,0.341,4.818,0.591,7.163,0.235c2.343-0.308,4.618-0.895,6.725-1.788c2.105-0.889,4.042-2.085,5.667-3.576
					c1.643-1.471,2.917-3.262,3.862-5.152c0.942-1.9,1.524-3.918,1.843-5.924c0.103-0.499,0.142-1.004,0.195-1.503
					c0.058-0.5,0.106-0.997,0.114-1.495c0.01-0.491,0.057-1.002,0.038-1.469c-0.031-0.486-0.095-0.97-0.171-1.445
					c-0.318-1.905-0.925-3.718-1.816-5.315c-0.891-1.595-2.096-2.955-3.511-3.934c-1.419-0.972-3.012-1.576-4.599-1.852
					c-1.586-0.262-3.167-0.384-4.623-0.032c-1.456,0.318-2.793,0.942-3.813,1.855c-1.029,0.905-1.681,2.093-2.011,3.283
					c-0.338,1.199-0.346,2.388-0.334,3.498c0.012,1.096,0.18,2.181,0.808,2.929c0.619,0.753,1.542,1.033,2.34,1.134
					c0.813,0.094,1.567,0.072,2.226-0.021c0.658-0.103,1.226-0.314,1.634-0.618c0.412-0.302,0.653-0.678,0.771-1
					c0.122-0.324,0.15-0.588,0.167-0.762c0.008-0.175,0.013-0.265,0.013-0.265s-0.003,0.09-0.01,0.265
					c-0.017,0.174-0.042,0.438-0.163,0.764c-0.117,0.324-0.355,0.703-0.768,1.011c-0.408,0.309-0.979,0.525-1.64,0.633
					c-0.663,0.099-1.416,0.127-2.236,0.039c-0.804-0.097-1.743-0.372-2.386-1.139c-0.649-0.762-0.826-1.866-0.846-2.969
					c-0.021-1.107-0.021-2.311,0.312-3.529c0.326-1.209,0.98-2.427,2.026-3.359c1.034-0.939,2.394-1.585,3.869-1.919
					c1.483-0.369,3.096-0.258,4.699-0.003c1.612,0.269,3.241,0.871,4.702,1.855c1.454,0.99,2.698,2.374,3.62,3.997
					c0.921,1.624,1.55,3.465,1.889,5.401c0.083,0.485,0.149,0.976,0.187,1.476c0.023,0.518-0.024,1.002-0.033,1.509
					c-0.007,0.503-0.055,1.008-0.112,1.513c-0.053,0.506-0.091,1.017-0.193,1.524c-0.318,2.035-0.904,4.09-1.861,6.029
					c-0.958,1.933-2.258,3.768-3.933,5.274c-1.654,1.526-3.627,2.753-5.769,3.663c-2.141,0.913-4.449,1.513-6.828,1.831
					c-2.385,0.369-4.854,0.121-7.28-0.218c-4.863-0.726-9.798-2.2-14.315-4.763c-4.51-2.541-8.534-6.289-11.199-11
					c-2.693-4.697-4.008-10.171-4.29-15.691c-0.213-5.524,0.189-11.146,1.409-16.662c0.604-2.756,1.382-5.491,2.417-8.14
					c1.021-2.652,2.213-5.256,3.674-7.716c1.444-2.467,3.078-4.832,4.915-7.037c1.853-2.191,3.885-4.233,6.073-6.093
					c2.184-1.867,4.554-3.508,7.024-4.962c2.474-1.447,5.046-2.732,7.718-3.749c2.666-1.028,5.395-1.876,8.167-2.511
					c2.775-0.614,5.579-1.052,8.389-1.312c2.821-0.223,5.622-0.295,8.413-0.21c1.396,0.005,2.784,0.083,4.17,0.153
					c1.387,0.048,2.766,0.182,4.141,0.292c5.493,0.493,10.898,1.34,16.095,2.674c5.199,1.324,10.197,3.075,14.89,5.232
					c4.672,2.197,9.052,4.764,13.009,7.686c7.938,5.832,14.183,12.922,18.851,20.103c4.698,7.187,7.885,14.441,10.146,21.017
					c2.264,6.586,3.607,12.523,4.484,17.438c0.862,4.921,1.246,8.832,1.438,11.5C423.773,111.589,423.766,113.017,423.766,113.017z"
					/>
			</g>
			
				<rect x="312.336" y="86.861" fill="none" stroke="#FFFFFF" stroke-width="0.339" stroke-miterlimit="10" width="5.187" height="5.199"/>
			
				<rect x="317.522" y="89.459" fill="none" stroke="#FFFFFF" stroke-width="0.339" stroke-miterlimit="10" width="2.897" height="2.546"/>
		</g>
	</g>
	<g>
		<path fill="#FFFFFF" d="M337.181,112.074c1.074-0.156,2.002-0.687,2.781-1.369c0.777-0.693,1.425-1.532,1.997-2.425
			c0.566-0.896,1.066-1.845,1.538-2.813c0.468-0.968,0.886-1.967,1.302-2.97c0.845-2,1.578-4.066,2.386-6.113
			c0.808-2.049,1.588-4.128,2.533-6.162c0.467-1.018,0.958-2.032,1.493-3.036c0.539-1,1.104-2.002,1.778-2.953
			c0.668-0.954,1.407-1.88,2.269-2.734c0.87-0.844,1.879-1.601,3.035-2.154c1.147-0.564,2.459-0.853,3.736-0.844
			c1.28,0.001,2.51,0.296,3.625,0.74c2.243,0.894,4.081,2.308,5.772,3.79l-0.856,1.244c-0.52-0.318-1.144-0.622-1.749-0.876
			c-0.611-0.261-1.245-0.468-1.89-0.635c-1.285-0.322-2.622-0.494-3.932-0.342c-1.306,0.139-2.583,0.552-3.686,1.266
			c-1.104,0.711-2.039,1.675-2.786,2.775c-0.745,1.103-1.305,2.333-1.76,3.599c-0.428,1.278-0.735,2.599-0.97,3.933
			c-0.471,2.67-0.602,5.403-0.595,8.127c0.017,1.366,0.059,2.729,0.126,4.095c0.028,0.682,0.083,1.365,0.122,2.045l0.018,0.242
			l0.018,0.212c0.017,0.145,0.033,0.285,0.059,0.407c0.021,0.124,0.053,0.232,0.076,0.298c0.015,0.063,0.062,0.072-0.074-0.079
			c-0.067-0.07-0.225-0.181-0.409-0.221c-0.186-0.045-0.337-0.018-0.409,0.002c-0.142,0.048-0.089,0.04-0.038-0.011
			c0.123-0.101,0.314-0.32,0.488-0.551c0.357-0.47,0.704-1.027,1.034-1.597c0.661-1.145,1.273-2.36,1.864-3.588
			c2.345-4.934,4.423-10.061,6.452-15.191c2.019-5.14,3.977-10.31,5.896-15.496l5.698-15.586l5.62-15.621l5.556-15.642l2.917,1.045
			c-1.363,3.565-2.683,7.173-3.976,10.78c-1.287,3.611-2.556,7.229-3.796,10.856c-1.239,3.627-2.443,7.268-3.606,10.92
			c-1.162,3.652-2.303,7.311-3.374,10.99c-1.073,3.677-2.088,7.371-3.03,11.082c-0.938,3.71-1.777,7.445-2.469,11.203
			c-0.341,1.879-0.643,3.766-0.861,5.659c-0.219,1.892-0.366,3.793-0.352,5.689c0.026,1.885,0.178,3.805,0.852,5.532
			c0.339,0.851,0.848,1.651,1.6,2.148c0.747,0.509,1.702,0.651,2.63,0.555l0.041,0.316c-0.966,0.152-2.033,0.063-2.921-0.475
			c-0.892-0.526-1.506-1.399-1.92-2.298c-0.421-0.91-0.66-1.876-0.835-2.84c-0.17-0.967-0.268-1.941-0.316-2.914
			c-0.096-1.946-0.027-3.889,0.113-5.82c0.142-1.931,0.366-3.854,0.629-5.768c0.537-3.83,1.278-7.619,2.088-11.391
			c0.812-3.771,1.733-7.515,2.708-11.244c0.979-3.728,2.005-7.441,3.09-11.137c1.087-3.695,2.215-7.378,3.378-11.049
			c1.159-3.672,2.359-7.331,3.602-10.976c1.24-3.648,2.504-7.277,3.825-10.912l2.917,1.046c-1.729,5.273-3.548,10.505-5.353,15.747
			l-2.736,7.852l-2.821,7.823l-2.86,7.81c-0.963,2.6-1.953,5.19-2.943,7.782c-1.986,5.179-4.007,10.348-6.122,15.485
			c-1.058,2.569-2.136,5.132-3.252,7.682c-1.12,2.55-2.264,5.093-3.527,7.604c-0.635,1.256-1.291,2.505-2.039,3.744
			c-0.378,0.621-0.771,1.235-1.262,1.86c-0.256,0.313-0.513,0.628-0.926,0.967c-0.217,0.166-0.456,0.36-0.931,0.505
			c-0.238,0.067-0.568,0.109-0.923,0.027c-0.354-0.079-0.664-0.283-0.854-0.476c-0.382-0.396-0.481-0.713-0.58-0.975
			c-0.087-0.265-0.131-0.493-0.166-0.712s-0.056-0.424-0.071-0.622l-0.017-0.306l-0.011-0.277c0.006-0.701-0.004-1.403,0.014-2.105
			c0.014-1.404,0.096-2.811,0.196-4.214c0.23-2.804,0.601-5.609,1.282-8.36c0.344-1.373,0.765-2.732,1.315-4.045
			c0.542-1.316,1.186-2.604,2.043-3.764c0.83-1.172,1.867-2.228,3.108-3.001c1.23-0.777,2.639-1.294,4.083-1.465
			c1.443-0.17,2.906-0.105,4.318,0.181c1.419,0.302,2.771,0.705,4.128,1.374l-0.856,1.243c-0.862-0.641-1.759-1.226-2.681-1.729
			c-0.922-0.502-1.873-0.922-2.836-1.194c-0.962-0.27-1.929-0.399-2.85-0.33c-0.924,0.073-1.791,0.352-2.605,0.787
			s-1.553,1.06-2.244,1.762c-0.694,0.702-1.328,1.506-1.912,2.36c-0.577,0.859-1.146,1.747-1.663,2.676
			c-0.521,0.927-1.012,1.882-1.484,2.853c-0.93,1.949-1.854,3.929-2.742,5.94c-0.888,2.01-1.832,4.014-2.836,6.008
			c-0.51,0.992-1.057,1.972-1.643,2.934c-0.585,0.964-1.223,1.905-1.956,2.782c-0.728,0.878-1.549,1.713-2.533,2.344
			c-0.966,0.644-2.142,1.036-3.276,0.993L337.181,112.074z"/>
		<path fill="#FFFFFF" d="M371.4,112.92c0,0,0.068-0.013,0.201-0.035c0.131-0.028,0.323-0.079,0.563-0.168
			c0.482-0.175,1.128-0.563,1.817-1.206c0.695-0.638,1.409-1.547,2.139-2.647s1.427-2.43,2.139-3.896
			c0.704-1.475,1.354-3.125,1.99-4.884c0.623-1.764,1.212-3.648,1.702-5.616c0.483-1.964,0.9-4.021,1.058-6.066
			c0.082-1.013,0.099-2.039-0.035-2.942c-0.066-0.447-0.176-0.861-0.312-1.15c-0.142-0.304-0.267-0.39-0.324-0.412
			c-0.037-0.015-0.09-0.031-0.194-0.031l-0.02-0.001c-0.015,0,0.119-0.002,0.05-0.001l-0.026,0.001l-0.093,0.005
			c0.031,0.005,0.078-0.008,0.06-0.001c-0.007,0.001-0.02,0.005-0.047,0.02c-0.106,0.043-0.376,0.271-0.605,0.601
			c-0.481,0.668-0.873,1.612-1.208,2.554c-0.333,0.954-0.595,1.954-0.82,2.955c-0.23,1.001-0.416,2.009-0.566,3.008
			c-0.314,1.997-0.506,3.958-0.606,5.818c-0.1,1.863-0.109,3.629-0.024,5.247c0.047,0.81,0.124,1.581,0.23,2.306
			c0.099,0.728,0.224,1.408,0.39,2.031c0.336,1.239,0.814,2.271,1.471,2.846c0.651,0.583,1.439,0.623,1.934,0.536
			c0.252-0.038,0.444-0.094,0.575-0.13c0.127-0.042,0.194-0.063,0.194-0.063s-0.058,0.037-0.174,0.11
			c-0.118,0.067-0.293,0.174-0.546,0.27c-0.249,0.097-0.579,0.191-0.991,0.201c-0.412,0.011-0.905-0.103-1.374-0.383
			c-0.472-0.274-0.909-0.694-1.292-1.2c-0.382-0.509-0.703-1.106-0.994-1.758c-0.288-0.653-0.542-1.364-0.764-2.124
			c-0.209-0.761-0.39-1.567-0.544-2.413c-0.314-1.691-0.501-3.54-0.565-5.498c-0.063-1.959-0.005-4.026,0.207-6.164
			c0.229-2.137,0.579-4.341,1.289-6.585c0.179-0.562,0.386-1.126,0.641-1.692c0.254-0.567,0.549-1.139,0.953-1.713
			c0.41-0.563,0.913-1.185,1.812-1.632c0.225-0.107,0.473-0.198,0.737-0.255c0.117-0.029,0.302-0.055,0.471-0.069l0.115-0.005
			l0.125-0.002l0.087,0.002c0.45,0.01,0.953,0.104,1.423,0.32c0.471,0.211,0.89,0.539,1.194,0.893
			c0.312,0.355,0.53,0.729,0.692,1.089c0.326,0.723,0.462,1.404,0.546,2.052c0.153,1.294,0.089,2.489-0.032,3.649
			c-0.271,2.313-0.807,4.477-1.445,6.522c-0.643,2.043-1.392,3.967-2.207,5.741c-0.804,1.78-1.702,3.397-2.593,4.852
			c-0.888,1.458-1.837,2.716-2.755,3.765c-0.911,1.053-1.851,1.86-2.691,2.415c-0.843,0.562-1.618,0.813-2.145,0.898
			c-0.264,0.045-0.468,0.045-0.604,0.045C371.47,112.924,371.4,112.92,371.4,112.92z"/>
		<path fill="#231F20" d="M417.665,112.037c1.075-0.085,2.076-0.567,2.872-1.26c0.806-0.69,1.442-1.552,1.989-2.458
			c0.547-0.907,1-1.871,1.419-2.848c0.416-0.979,0.788-1.979,1.135-2.987c0.692-2.017,1.295-4.07,1.899-6.127
			c0.61-2.054,1.221-4.117,1.912-6.165c0.693-2.045,1.458-4.084,2.47-6.047c0.51-0.979,1.079-1.943,1.779-2.84
			c0.698-0.895,1.524-1.738,2.538-2.386c1.007-0.653,2.214-1.067,3.436-1.141c1.223-0.08,2.42,0.147,3.52,0.52
			c1.103,0.376,2.127,0.891,3.088,1.475c0.965,0.581,1.867,1.235,2.738,1.917l-1.253,1.694c-0.183-0.112-0.453-0.26-0.694-0.377
			c-0.249-0.123-0.504-0.236-0.763-0.341c-0.519-0.208-1.049-0.385-1.585-0.518c-1.072-0.264-2.168-0.36-3.218-0.226
			c-2.114,0.243-3.966,1.479-5.312,3.235c-1.362,1.751-2.29,3.909-2.988,6.133c-0.697,2.235-1.146,4.572-1.494,6.929
			c-0.337,2.36-0.539,4.752-0.663,7.151l-0.075,1.802c-0.021,0.589-0.021,1.147,0.013,1.689c0.029,0.527,0.113,1.069,0.23,1.357
			c0.047,0.143,0.126,0.148-0.067,0.005c-0.094-0.063-0.242-0.097-0.317-0.095c-0.078,0.002-0.084,0.012-0.056,0
			c0.063-0.023,0.235-0.124,0.406-0.259c0.173-0.137,0.359-0.306,0.545-0.489c0.372-0.372,0.739-0.801,1.095-1.248
			c0.716-0.897,1.393-1.871,2.047-2.863c1.308-1.992,2.534-4.07,3.741-6.165c2.409-4.197,4.667-8.495,6.964-12.807
			c0.586-1.085,1.143-2.146,1.813-3.273c0.089-0.144,0.179-0.289,0.294-0.458c0.06-0.087,0.118-0.171,0.23-0.306
			c0.069-0.074,0.106-0.142,0.344-0.328c0.184-0.006,0.22-0.499,1.563-0.22c1.297,0.897,0.879,1.247,0.951,1.044
			c-0.001-0.006,0.017,0.052,0.043,0.167c0.019,0.092,0.034,0.187,0.042,0.28l0.012,0.213c0.001,0.111,0.001,0.224-0.002,0.313
			c-0.005,0.192-0.018,0.359-0.029,0.528c-0.052,0.663-0.126,1.278-0.203,1.898c-0.321,2.463-0.716,4.875-1.129,7.292
			c-0.85,4.823-1.79,9.62-2.791,14.407c-1.003,4.786-2.072,9.558-3.224,14.313c-1.172,4.752-2.43,9.484-3.833,14.187
			c-0.705,2.351-1.447,4.692-2.257,7.02c-0.813,2.326-1.681,4.641-2.719,6.914c-0.523,1.136-1.079,2.264-1.73,3.37
			c-0.326,0.554-0.676,1.102-1.07,1.639c-0.396,0.538-0.834,1.067-1.391,1.562c-0.283,0.245-0.588,0.487-0.968,0.69
			c-0.373,0.202-0.82,0.374-1.329,0.424c-0.506,0.054-1.053-0.044-1.495-0.244c-0.447-0.2-0.807-0.477-1.097-0.761
			c-1.076-1.087-1.684-2.452-1.977-3.799c-0.291-1.354-0.3-2.693-0.186-3.982c0.115-1.292,0.355-2.543,0.657-3.767
			c0.616-2.444,1.478-4.778,2.421-7.059c1.907-4.556,4.166-8.906,6.499-13.202c2.346-4.29,4.808-8.503,7.252-12.721
			c2.439-4.221,4.907-8.421,7.241-12.694c2.305-4.282,4.602-8.593,6.249-13.187c-0.707,2.333-1.604,4.609-2.57,6.852
			c-0.965,2.244-2.014,4.449-3.102,6.635c-2.173,4.373-4.472,8.679-6.788,12.969c-2.313,4.291-4.62,8.582-6.836,12.909
			c-2.212,4.326-4.34,8.696-6.086,13.186c-0.864,2.242-1.633,4.52-2.153,6.817c-0.264,1.146-0.46,2.301-0.541,3.439
			c-0.081,1.137-0.041,2.263,0.202,3.29c0.239,1.022,0.712,1.95,1.369,2.592c0.148,0.139,0.29,0.228,0.401,0.271
			c0.113,0.043,0.187,0.05,0.287,0.038c0.193-0.018,0.553-0.206,0.897-0.537c0.704-0.655,1.338-1.641,1.898-2.633
			c0.562-1.009,1.063-2.08,1.534-3.169c1.856-4.385,3.31-9.018,4.639-13.667c1.326-4.658,2.503-9.368,3.607-14.097
			c1.123-4.726,2.163-9.472,3.14-14.233c0.974-4.76,1.886-9.536,2.705-14.318c0.413-2.387,0.82-4.784,1.138-7.154
			c0.078-0.588,0.151-1.183,0.196-1.734c0.011-0.136,0.021-0.272,0.023-0.385l0.003-0.144c-0.001-0.004-0.002-0.019,0-0.015
			c0.004,0.056,0.014,0.112,0.028,0.167c0.021,0.077,0.032,0.097,0.019,0.054c0.06-0.237-0.357,0.065,0.901,0.946
			c1.305,0.269,1.305-0.199,1.459-0.183c0.177-0.141,0.163-0.15,0.184-0.167c0.015-0.018-0.018,0.021-0.043,0.06
			c-0.057,0.083-0.129,0.196-0.2,0.313c-0.583,0.964-1.166,2.058-1.741,3.116c-2.306,4.281-4.601,8.608-7.062,12.857
			c-1.231,2.128-2.508,4.234-3.904,6.299c-0.7,1.032-1.428,2.054-2.243,3.055c-0.41,0.499-0.841,0.994-1.338,1.479
			c-0.249,0.242-0.515,0.482-0.825,0.718c-0.313,0.232-0.657,0.473-1.165,0.665c-0.258,0.093-0.562,0.177-0.945,0.178
			c-0.38,0.007-0.836-0.106-1.189-0.328c-0.359-0.219-0.603-0.498-0.769-0.744c-0.17-0.252-0.272-0.483-0.357-0.701
			c-0.308-0.858-0.352-1.546-0.398-2.23c-0.033-0.673-0.021-1.335,0.01-1.964l0.101-1.851c0.158-2.466,0.398-4.934,0.782-7.396
			c0.386-2.46,0.918-4.915,1.724-7.32c0.811-2.395,1.868-4.781,3.549-6.858c0.841-1.03,1.851-1.973,3.041-2.68
			c1.184-0.712,2.543-1.165,3.915-1.301c1.374-0.145,2.743,0.014,4.028,0.359c0.644,0.176,1.269,0.395,1.873,0.661
			c0.302,0.133,0.6,0.276,0.894,0.431c0.301,0.161,0.564,0.308,0.894,0.526l-1.253,1.693c-1.587-1.325-3.292-2.53-5.134-3.225
			c-0.915-0.343-1.863-0.543-2.786-0.511c-0.922,0.03-1.816,0.3-2.627,0.787c-0.813,0.483-1.537,1.167-2.179,1.94
			c-0.643,0.776-1.212,1.638-1.725,2.542c-1.026,1.812-1.852,3.771-2.612,5.756c-1.513,3.979-2.748,8.1-4.336,12.109
			c-0.804,1.997-1.675,3.991-2.896,5.792c-0.61,0.893-1.314,1.742-2.181,2.401C419.795,111.583,418.742,112.015,417.665,112.037z"/>
		<path fill="#FFFFFF" d="M383.047,111.957l0.431-0.394l0.394-0.396c0.262-0.268,0.503-0.551,0.739-0.837
			c0.478-0.566,0.896-1.178,1.302-1.792c0.808-1.235,1.509-2.54,2.175-3.864c0.658-1.331,1.275-2.688,1.87-4.061l0.878-2.069
			c0.303-0.688,0.6-1.379,0.915-2.066l1.919-4.139c0.319-0.695,0.616-1.399,0.903-2.108c0.293-0.707,0.548-1.427,0.794-2.15
			c0.482-1.45,0.864-2.931,1.183-4.424c0.158-0.747,0.295-1.499,0.408-2.254c0.121-0.752,0.223-1.517,0.301-2.263l0.222-2.09
			l1.313,1.815c0.507,0.699,0.986,1.387,1.465,2.089c0.477,0.701,0.949,1.405,1.391,2.128c0.453,0.717,0.878,1.451,1.29,2.192
			c0.417,0.738,0.811,1.49,1.199,2.246c0.778,1.511,1.512,3.051,2.178,4.63c0.34,0.787,0.654,1.586,0.941,2.4
			c0.294,0.81,0.545,1.639,0.784,2.476c0.219,0.842,0.433,1.689,0.582,2.561c0.154,0.868,0.278,1.75,0.334,2.648
			c0.117,1.788,0.021,3.679-0.673,5.516c-0.338,0.914-0.882,1.794-1.597,2.502c-0.71,0.714-1.592,1.219-2.487,1.508
			c-0.896,0.302-1.809,0.394-2.688,0.395c-0.883-0.013-1.741-0.127-2.573-0.32l0.019-0.318c0.836-0.093,1.654-0.214,2.433-0.413
			c0.778-0.194,1.514-0.478,2.15-0.846c0.635-0.379,1.156-0.854,1.546-1.403c0.383-0.554,0.632-1.188,0.793-1.867
			c0.158-0.681,0.201-1.409,0.189-2.151c-0.011-0.744-0.089-1.504-0.206-2.268c-0.124-0.763-0.275-1.531-0.468-2.298
			c-0.194-0.765-0.396-1.537-0.635-2.302c-0.223-0.77-0.479-1.533-0.73-2.302c-0.259-0.766-0.525-1.534-0.799-2.302
			c-0.555-1.532-1.159-3.058-1.798-4.574l-0.987-2.266l-1.009-2.265l-1.013-2.272c-0.34-0.754-0.693-1.516-1.053-2.246l1.532-0.275
			l-0.677,2.228c-0.23,0.737-0.448,1.476-0.66,2.216c-0.213,0.74-0.416,1.48-0.617,2.223c-0.198,0.743-0.388,1.488-0.568,2.236
			c-0.174,0.751-0.352,1.5-0.504,2.258l-0.481,2.275c-0.158,0.761-0.33,1.519-0.51,2.277c-0.197,0.753-0.385,1.51-0.622,2.252
			c-0.461,1.491-1.041,2.945-1.729,4.355c-0.673,1.415-1.436,2.799-2.306,4.123c-0.877,1.32-1.854,2.593-3.01,3.713
			c-0.574,0.563-1.203,1.074-1.865,1.532c-0.334,0.228-0.686,0.428-1.039,0.615c-0.365,0.189-0.735,0.341-1.103,0.461
			L383.047,111.957z"/>
		<ellipse fill="#FFFFFF" cx="419.164" cy="75.171" rx="2.267" ry="2.289"/>
		<path fill="#FFFFFF" d="M398.785,111.674c0,0-0.017-0.064-0.035-0.216c-0.016-0.156-0.026-0.373-0.007-0.663
			c0.042-0.575,0.219-1.403,0.603-2.375c0.74-1.961,2.255-4.481,4.299-7.256c1.032-1.381,2.171-2.854,3.464-4.323
			c1.297-1.468,2.79-2.901,4.296-4.414c0.379-0.377,0.756-0.763,1.122-1.157c0.372-0.394,0.743-0.793,1.097-1.208
			c0.713-0.829,1.389-1.703,2.001-2.625c0.604-0.924,1.161-1.896,1.563-2.908c0.201-0.504,0.351-1.024,0.425-1.52
			c0.08-0.493,0.039-0.976-0.119-1.268c-0.038-0.076-0.085-0.136-0.134-0.191l-0.019-0.02l-0.009-0.011
			c0.053,0.071,0.004,0.009,0.012,0.02c-0.019-0.017-0.071-0.08-0.036-0.026c0.044,0.051,0.072,0.094,0.197,0.145
			c0.125,0.05,0.303,0.044,0.384,0.015l0.123-0.045c0.011,0.009-0.032,0.074-0.067,0.158c-0.16,0.355-0.308,0.885-0.422,1.392
			c-0.237,1.034-0.407,2.121-0.583,3.194c-0.338,2.154-0.559,4.312-0.719,6.395c-0.267,4.168-0.532,8.052-0.404,11.326
			c0.051,1.633,0.223,3.109,0.522,4.329c0.16,0.604,0.354,1.144,0.588,1.586c0.236,0.442,0.521,0.771,0.827,1.002
			c0.622,0.457,1.388,0.46,1.881,0.396c0.252-0.028,0.448-0.069,0.58-0.1c0.134-0.03,0.202-0.047,0.202-0.047l0.137,0.288
			c0,0-0.062,0.044-0.181,0.125c-0.122,0.08-0.305,0.191-0.563,0.321c-0.259,0.125-0.599,0.257-1.042,0.33
			c-0.439,0.08-0.998,0.059-1.587-0.152c-0.59-0.205-1.155-0.629-1.625-1.155c-0.479-0.525-0.87-1.16-1.196-1.854
			c-0.67-1.384-1.086-3.009-1.397-4.771c-0.297-1.764-0.438-3.678-0.454-5.69c-0.013-2.012,0.124-4.125,0.44-6.285
			c0.296-2.162,0.706-4.379,1.282-6.614c0.289-1.12,0.646-2.234,1.125-3.354c0.256-0.563,0.501-1.112,0.942-1.723
			c0.118-0.155,0.249-0.319,0.47-0.501c0.123-0.093,0.252-0.192,0.481-0.271c0.213-0.079,0.542-0.103,0.8-0.002
			c0.26,0.099,0.411,0.222,0.551,0.379c0.088,0.103,0.074,0.098,0.102,0.137c0.018,0.024-0.02-0.024,0.043,0.061l0.02,0.035
			l0.04,0.07c0.102,0.186,0.183,0.381,0.233,0.578c0.208,0.795,0.063,1.496-0.11,2.103c-0.185,0.612-0.447,1.157-0.715,1.686
			c-0.548,1.05-1.167,2.017-1.792,2.966c-0.623,0.944-1.242,1.882-1.854,2.809c-0.599,0.935-1.19,1.86-1.773,2.768
			c-1.159,1.822-2.311,3.562-3.513,5.104c-1.208,1.542-2.431,2.921-3.532,4.207c-2.229,2.551-4.078,4.65-5.228,6.205
			c-0.568,0.779-0.958,1.424-1.161,1.889c-0.108,0.229-0.168,0.418-0.203,0.538c-0.04,0.125-0.054,0.202-0.054,0.202
			L398.785,111.674z"/>
		<path fill="#231F20" d="M453.041,87.915c0,0,0.163-0.561,0.516-1.604c0.369-1.038,0.882-2.563,1.826-4.441
			c0.243-0.469,0.504-0.964,0.857-1.469c0.177-0.252,0.371-0.51,0.616-0.769c0.257-0.252,0.524-0.534,1.046-0.735
			c0.256-0.095,0.606-0.149,0.959-0.066c0.354,0.079,0.644,0.276,0.842,0.468c0.396,0.395,0.579,0.781,0.742,1.15
			c0.298,0.741,0.455,1.462,0.591,2.203c0.258,1.477,0.394,3.019,0.449,4.64c0.058,1.618,0.082,3.312,0.044,5.074
			c-0.078,3.523-0.285,7.322-0.721,11.312c-0.211,1.993-0.5,4.037-0.779,6.11c-0.071,0.516-0.147,1.04-0.198,1.531l-0.01,0.083
			c-0.002,0.017-0.003,0.065-0.006,0.013c1.536-0.335-2.68-0.811-2.04-0.211c-0.01,0.04-0.004,0.023-0.004,0.023l0.018-0.067
			l0.076-0.37l0.148-0.783c0.204-1.056,0.409-2.122,0.615-3.196c0.836-4.303,1.711-8.736,2.662-13.237
			c0.237-1.126,0.509-2.25,0.777-3.378c0.268-1.129,0.563-2.259,0.892-3.385c0.32-1.129,0.678-2.256,1.114-3.37
			c0.434-1.115,0.921-2.229,1.661-3.289c0.376-0.525,0.818-1.05,1.457-1.475c0.319-0.208,0.696-0.388,1.12-0.478
			c0.42-0.094,0.878-0.087,1.291,0.003c0.838,0.188,1.473,0.635,1.99,1.085l0.355,0.338c0.098,0.086,0.226,0.233,0.344,0.369
			c0.255,0.278,0.436,0.538,0.636,0.813c0.746,1.116,1.213,2.34,1.538,3.551c0.31,1.214,0.479,2.43,0.579,3.622
			c0.199,2.389,0.134,4.708,0.076,6.964c-0.061,2.257-0.164,4.455-0.131,6.565c0.014,1.054,0.072,2.085,0.175,3.074
			c0.102,0.987,0.271,1.935,0.534,2.784c0.127,0.428,0.281,0.83,0.467,1.191c0.176,0.37,0.391,0.692,0.623,0.979
			c0.458,0.584,1.039,0.991,1.73,1.276c0.697,0.273,1.498,0.434,2.338,0.474c0.839,0.043,1.709-0.02,2.572-0.12
			c1.753-0.218,3.395-0.612,4.871-1.231c2.972-1.183,5.26-3.247,6.239-5.545c0.487-1.144,0.648-2.324,0.532-3.406
			c-0.11-1.086-0.499-2.06-0.964-2.885c-0.469-0.827-1.041-1.489-1.568-2.04c-0.531-0.55-1.044-0.969-1.467-1.297
			c-0.424-0.329-0.766-0.564-0.998-0.72c-0.234-0.153-0.356-0.232-0.356-0.232l0.147-0.283c0,0,0.135,0.059,0.397,0.172
			c0.263,0.115,0.647,0.294,1.142,0.555c0.491,0.263,1.083,0.621,1.738,1.119c0.655,0.497,1.367,1.146,2.03,2.013
			c0.662,0.863,1.267,1.974,1.562,3.315c0.152,0.668,0.216,1.39,0.19,2.136c-0.037,0.746-0.175,1.514-0.418,2.273
			c-0.485,1.52-1.381,3.002-2.606,4.258c-1.218,1.264-2.729,2.342-4.433,3.165c-1.706,0.824-3.605,1.386-5.57,1.735
			c-0.998,0.176-2.041,0.288-3.144,0.272c-1.1-0.02-2.276-0.163-3.451-0.603c-1.166-0.438-2.316-1.211-3.148-2.229
			c-0.419-0.504-0.771-1.053-1.048-1.616c-0.288-0.564-0.508-1.143-0.685-1.72c-0.357-1.157-0.529-2.317-0.637-3.46
			c-0.11-1.145-0.12-2.278-0.105-3.405c0.036-2.253,0.202-4.486,0.356-6.714c0.151-2.225,0.277-4.457,0.203-6.644
			c-0.031-1.094-0.145-2.17-0.335-3.207c-0.196-1.034-0.506-2.021-0.986-2.878c-0.123-0.205-0.254-0.435-0.377-0.598
			c-0.064-0.09-0.113-0.174-0.223-0.292l-0.249-0.289c-0.32-0.342-0.664-0.596-0.962-0.694c-0.291-0.097-0.568-0.082-0.933,0.105
			c-0.356,0.185-0.729,0.521-1.062,0.914c-0.67,0.795-1.226,1.785-1.719,2.796c-0.484,1.021-0.906,2.086-1.293,3.165
			c-0.751,2.165-1.358,4.385-1.858,6.609c-0.517,2.222-0.921,4.454-1.243,6.669c-0.156,1.109-0.314,2.211-0.44,3.309
			c-0.123,1.099-0.237,2.19-0.342,3.275c-0.092,1.085-0.185,2.163-0.274,3.229l-0.068,0.807l-0.043,0.419l-0.018,0.129
			c-0.005,0.031-0.006,0.048-0.024,0.121c0.633,0.655-3.608,0.164-2.066-0.22l-0.006-0.187v-0.116
			c0.001-0.568,0.018-1.097,0.034-1.628c0.085-2.11,0.176-4.157,0.299-6.149c0.237-3.981,0.562-7.729,0.751-11.182
			c0.203-3.443,0.316-6.629,0.104-9.313c-0.062-0.662-0.159-1.298-0.316-1.803c-0.073-0.246-0.175-0.46-0.225-0.529
			c-0.023-0.036-0.007-0.022,0.043-0.018c0.048,0.004,0.079-0.017,0.045-0.016c-0.066-0.005-0.271,0.113-0.441,0.258
			c-0.18,0.149-0.356,0.334-0.524,0.526c-0.335,0.386-0.646,0.802-0.928,1.205c-1.111,1.641-1.877,3.058-2.411,4.003
			c-0.53,0.957-0.813,1.465-0.813,1.465L453.041,87.915z"/>
	</g>
	<g>
		<path d="M47.146,60.988c0-2.681-0.819-3.426-3.053-3.426h-3.127c-0.373,0-0.521-0.148-0.521-0.446v-1.862
			c0-0.447,0.074-0.596,0.446-0.596c1.042,0,4.394,0.223,9.457,0.223c5.361,0,7.744-0.223,8.787-0.223
			c0.521,0,0.596,0.223,0.596,0.521v1.787c0,0.298-0.075,0.596-0.521,0.596h-2.904c-1.34,0-2.309,0.521-2.309,2.83v9.829
			c0,1.042,0.298,1.787,0.298,2.383s-0.446,0.894-1.191,1.191c-6.031,3.053-11.988,4.766-20.328,4.766
			c-6.627,0-15.712-2.458-20.85-8.489c-4.542-5.138-6.851-11.467-6.851-20.477c0-6.776,2.904-13.999,8.414-18.914
			c5.287-4.542,11.989-7.074,20.924-7.074c6.404,0,12.137,2.383,14.669,4.319c0.819,0.67,1.266,0.521,1.712-0.075l1.117-1.34
			c0.298-0.298,0.596-0.67,1.043-0.67c0.521,0,0.67,0.372,0.67,0.894l0.224,14.222c0,0.373-0.075,0.67-0.373,0.67l-1.34,0.148
			c-0.298,0-0.521-0.223-0.596-0.596c-0.596-2.085-1.861-5.584-4.468-8.786c-2.234-2.755-6.851-6.106-13.552-6.106
			c-5.138,0-9.754,1.266-14.222,6.032c-4.021,4.245-6.553,10.425-6.553,17.126c0,8.787,2.457,16.456,7.074,20.85
			c3.723,3.574,8.265,5.287,13.105,5.287c5.957,0,9.606-1.043,12.212-2.532c1.712-1.042,2.01-2.681,2.01-6.553V60.988z"/>
		<path d="M72.763,43.563c0-5.51,0-10.275-0.075-12.435c-0.075-2.458-0.968-3.723-2.83-3.723H66.88
			c-0.372,0-0.447-0.224-0.447-0.521v-1.861c0-0.372,0.075-0.521,0.447-0.521c0.67,0,2.979,0.223,9.233,0.223
			c4.17,0,11.095-0.223,12.436-0.224c6.18,0,11.095,1.862,13.924,4.542c2.458,2.383,3.872,5.734,3.872,8.489
			c0,9.308-4.245,12.808-13.776,14.893v0.149c1.787,0.67,2.83,2.01,3.426,2.83c0.894,0.968,6.18,8.563,6.776,9.531
			c0.373,0.745,5.138,7.521,6.553,8.563c1.564,1.117,3.276,1.266,5.361,1.266c0.521,0,0.596,0.298,0.596,0.596v1.638
			c0,0.447-0.075,0.67-0.596,0.67c-0.596,0-2.532-0.224-5.808-0.224c-2.16,0-4.915,0.149-6.031,0.224
			c-0.819-0.745-2.458-3.276-3.128-4.245c-0.596-0.894-4.616-7.967-4.989-8.563c-0.298-0.521-3.872-5.883-4.766-6.925
			c-1.936-2.308-3.723-4.319-8.042-4.319c-0.67,0-1.415,0-2.458,0.224v4.17c0,4.393,0.075,12.733,0.149,13.85
			c0.148,1.564,0.744,2.904,1.861,2.904h4.691c0.521,0,0.596,0.224,0.596,0.596v1.638c0,0.521-0.075,0.67-0.819,0.67
			c-0.819,0-2.681-0.224-9.755-0.224c-6.776,0-8.488,0.224-9.308,0.224c-0.596,0-0.596-0.224-0.596-0.596v-1.713
			c0-0.372,0-0.596,0.372-0.596h3.053c1.638,0,2.904-0.521,2.904-2.532c0.149-7.372,0.149-14.372,0.149-21.445V43.563z
			 M79.464,50.936c1.117,0.224,1.937,0.298,3.351,0.298c13.552,0,16.159-9.308,16.159-12.436c0-3.425-1.564-6.701-3.724-8.488
			c-2.904-2.309-6.18-3.426-12.36-3.426c-0.894,0-1.862,0.149-2.532,0.596c-0.521,0.373-0.894,1.191-0.894,2.383V50.936z"/>
		<path d="M129.877,56.744c-0.745,1.862-4.84,13.18-5.213,14.744c-0.074,0.521-0.223,1.266-0.223,1.638
			c0,1.042,0.894,1.638,2.532,1.638h3.5c0.521,0,0.744,0.149,0.744,0.521v1.712c0,0.521-0.223,0.67-0.596,0.67
			c-1.042,0-4.095-0.224-8.488-0.224c-5.436,0-7.074,0.224-8.117,0.224c-0.373,0-0.521-0.149-0.521-0.596v-1.787
			c0-0.373,0.298-0.521,0.596-0.521h2.606c2.234,0,3.276-1.042,4.319-3.425c0.521-1.191,5.957-14.967,8.116-21.073
			c0.521-1.489,6.553-17.499,7.223-19.51c0.223-0.744,0.596-1.712,0.075-2.531c-0.224-0.298-0.521-0.67-0.521-0.968
			c0-0.223,0.149-0.521,0.67-0.67c2.085-0.446,5.361-2.681,6.181-3.723c0.372-0.373,0.596-0.67,0.968-0.67
			c0.447,0,0.596,0.447,0.819,1.266c1.415,4.691,7.223,21.371,8.638,26.136c1.713,5.808,6.553,19.658,7.595,21.818
			c1.266,2.457,3.202,3.351,5.063,3.351h2.458c0.446,0,0.596,0.224,0.596,0.521v1.861c0,0.372-0.224,0.521-0.745,0.521
			c-1.34,0-2.904-0.224-8.936-0.224c-6.18,0-8.787,0.224-10.499,0.224c-0.372,0-0.596-0.224-0.596-0.67v-1.712
			c0-0.447,0.224-0.521,0.67-0.521h1.862c2.085,0,2.755-0.745,2.234-2.83c-0.596-2.681-3.648-12.212-4.691-15.19H129.877z
			 M147.301,54.063c-0.67-2.234-6.701-20.85-7.074-21.966c-0.223-0.521-0.373-1.043-0.596-1.043c-0.298,0-0.596,0.521-0.819,1.117
			c-0.373,0.968-7.446,20.03-7.968,21.892H147.301z"/>
		<path d="M185.65,57.712c0,3.5,0.075,13.626,0.149,14.669c0.148,1.638,0.894,2.383,2.457,2.383h4.766
			c0.521,0,0.596,0.224,0.596,0.521v1.787c0,0.372-0.074,0.596-0.67,0.596c-1.043,0-3.351-0.224-10.351-0.224
			c-6.553,0-9.457,0.224-10.276,0.224c-0.521,0-0.596-0.224-0.596-0.521v-1.861c0-0.373,0.075-0.521,0.447-0.521h3.202
			c2.531,0,3.053-0.372,3.276-2.383c0.074-0.745,0.298-12.361,0.298-20.999v-8.563c0-4.915-0.075-13.031-0.149-13.776
			c-0.148-1.489-0.894-1.638-2.904-1.638h-4.245c-0.372,0-0.446-0.149-0.446-0.596v-1.787c0-0.372,0.074-0.521,0.446-0.521
			c0.819,0,3.5,0.223,10.574,0.223c1.34,0,5.733-0.223,8.19-0.224c8.415,0,12.361,0.819,16.605,3.724
			c3.5,2.383,5.659,6.553,5.659,10.797c0,9.382-7.074,15.19-18.914,15.19c-2.755,0-5.734-0.074-8.117-0.372V57.712z M185.65,51.159
			c1.489,0.446,3.947,0.67,6.851,0.67c4.542,0,8.563-2.457,10.5-5.063c1.638-2.159,1.936-4.915,1.936-7.521
			c0-9.755-9.084-12.361-13.478-12.361c-1.266,0-4.319,0-5.809,0.521V51.159z"/>
		<path d="M224.818,48.106c0-4.617-0.149-14.669-0.149-15.861c0-3.797-0.521-4.84-3.276-4.84h-3.5c-0.373,0-0.447-0.149-0.447-0.596
			v-1.787c0-0.372,0.224-0.521,0.596-0.521c1.489,0,3.872,0.223,10.425,0.223c5.809,0,8.489-0.223,9.904-0.224
			c0.521,0,0.745,0.075,0.745,0.373v1.936c0,0.447-0.149,0.596-0.596,0.596h-3.798c-2.531,0-2.904,1.266-2.904,4.244
			c0,1.043-0.149,10.872-0.149,15.042v1.266c0,0.372,0.224,0.596,0.894,0.596h27.551c1.117,0,1.49-0.149,1.49-1.117v-0.744
			c0-4.245-0.224-14.595-0.224-15.488c0-2.383-0.298-3.798-2.458-3.798h-3.871c-0.373,0-0.521-0.149-0.521-0.521v-1.936
			c0-0.298,0.074-0.447,0.446-0.447c1.563,0,4.766,0.223,9.829,0.223s8.116-0.223,9.531-0.224c0.521,0,0.596,0.149,0.596,0.596
			v1.787c0,0.447-0.148,0.521-0.596,0.521h-3.351c-2.159,0-2.383,1.266-2.383,3.946c0,1.043-0.149,13.627-0.149,16.382v2.532
			c0,2.383,0.149,16.53,0.224,20.775c0,2.681,0.745,3.723,2.979,3.723h3.276c0.521,0,0.67,0.149,0.67,0.521v1.787
			c0,0.446-0.148,0.596-0.596,0.596c-1.414,0-3.946-0.224-9.382-0.224c-6.479,0-8.861,0.224-11.095,0.224
			c-0.298,0-0.447-0.224-0.447-0.521v-1.861c0-0.373,0.149-0.521,0.596-0.521h4.691c1.787,0,2.011-1.415,2.011-3.425
			c0.074-3.5,0.224-15.488,0.224-18.169v-1.042c0-0.819-0.373-0.894-1.639-0.894h-27.253c-0.819,0-1.042,0.224-1.042,0.745v1.564
			c0,2.01,0.074,13.478,0.149,18.69c0.075,1.787,0.819,2.532,2.383,2.532h3.649c0.446,0,0.596,0.149,0.596,0.521v1.861
			c0,0.372-0.149,0.521-0.596,0.521c-1.415,0-4.021-0.224-9.383-0.224c-6.403,0-8.638,0.224-10.35,0.224
			c-0.373,0-0.521-0.149-0.521-0.521V75.21c0-0.298,0.223-0.447,0.521-0.447h4.393c1.862,0,2.085-1.787,2.085-3.574
			c0.075-3.5,0.224-17.945,0.224-19.882V48.106z"/>
		<path fill="#FFFFFF" d="M289.528,46.244c0-1.787-0.224-15.19-0.298-16.307c-0.148-1.787-0.894-2.532-3.723-2.532h-4.319
			c-0.372,0-0.596-0.149-0.596-0.447v-2.01c0-0.298,0.224-0.447,0.521-0.447c0.894,0,4.69,0.223,11.616,0.223
			c6.627,0,9.01-0.223,10.053-0.224c0.372,0,0.521,0.224,0.521,0.521v1.861c0,0.373-0.224,0.521-0.596,0.521h-3.499
			c-1.49,0-2.606,0.596-2.606,2.085c0,0.745-0.224,17.201-0.224,18.095v5.733c0,0.745,0.224,17.945,0.224,18.765
			c0,2.309,1.116,2.681,3.499,2.681h3.054c0.372,0,0.596,0.149,0.596,0.521v1.936c0,0.298-0.224,0.447-0.671,0.447
			c-0.893,0-3.871-0.224-10.35-0.224c-7.074,0-10.276,0.224-11.096,0.224c-0.372,0-0.596-0.149-0.596-0.447v-2.01
			c0-0.298,0.224-0.447,0.596-0.447h4.17c1.49,0,3.054-0.224,3.352-2.159c0.148-1.117,0.372-17.201,0.372-21.147V46.244z"/>
		<path fill="#FFFFFF" d="M318.271,71.711c-5.361-5.063-7.968-13.701-7.968-20.85c0-6.925,2.234-14.074,7.596-19.733
			c3.797-4.021,10.499-7.521,18.615-7.521c6.776,0,12.361,2.532,15.041,4.096c0.969,0.596,1.341,0.521,1.49,0l0.596-2.159
			c0.148-0.447,0.297-0.447,0.968-0.447c0.67,0,0.819,0.149,0.819,1.191c0,1.415,1.488,12.361,1.861,14.446
			c0.074,0.372,0,0.67-0.298,0.744l-1.117,0.298c-0.372,0.075-0.521,0-0.745-0.596c-1.042-2.457-2.68-6.031-5.808-9.233
			c-3.128-3.202-7.074-5.733-12.956-5.733c-13.329,0-18.69,11.84-18.616,22.711c0,4.319,1.341,12.733,7.148,19.137
			c5.063,5.659,9.308,6.255,14.297,6.255c8.414,0,14.967-4.617,18.393-9.457c0.224-0.373,0.372-0.447,0.596-0.224l0.968,0.745
			c0.224,0.149,0.372,0.298,0.148,0.67c-4.467,6.478-11.69,12.51-22.189,12.51C328.322,78.562,322.738,75.806,318.271,71.711z"/>
	</g>
</g>
</svg>
