<?xml version="1.0" encoding="utf-8"?>
<!-- Generator: Adobe Illustrator 16.0.0, SVG Export Plug-In . SVG Version: 6.00 Build 0)  -->
<!DOCTYPE svg PUBLIC "-//W3C//DTD SVG 1.1//EN" "http://www.w3.org/Graphics/SVG/1.1/DTD/svg11.dtd">
<svg version="1.1" id="Layer_1" xmlns="http://www.w3.org/2000/svg" xmlns:xlink="http://www.w3.org/1999/xlink" x="0px" y="0px"
	 width="500px" height="200px" viewBox="0 0 500 200" enable-background="new 0 0 500 200" xml:space="preserve">
<g>
	<path fill="#FFFFFF" d="M397.203,115.351c0,0,0.137-0.132,0.399-0.388c0.257-0.262,0.665-0.628,1.22-1.107
		c0.575-0.445,1.286-1.006,2.265-1.498c0.96-0.494,2.257-0.952,3.842-0.743c0.783,0.108,1.601,0.436,2.294,0.952
		c0.699,0.51,1.297,1.168,1.81,1.894c1.03,1.457,1.72,3.177,2.271,5.021c1.103,3.697,1.6,7.936,1.88,12.524
		c0.222,4.594,0.221,9.558-0.103,14.771c-0.17,2.606-0.406,5.275-0.678,7.977c-0.06,0.668-0.12,1.341-0.182,2.018
		c-0.026,0.337-0.048,0.648-0.058,0.968l-0.008,0.238l-0.002,0.097c-0.001-0.002,0.002,0.035-0.007-0.023
		c2.055-0.195-3.151-0.705-2.534-0.037c-0.006,0.063,0.016-0.069,0.021-0.131l0.028-0.245c0.142-1.385,0.284-2.782,0.427-4.191
		c0.63-5.657,1.248-11.491,2.001-17.415c0.386-2.96,0.806-5.946,1.391-8.933c0.281-1.497,0.602-2.995,1.026-4.486
		c0.435-1.49,0.938-2.982,1.77-4.433c0.422-0.72,0.928-1.452,1.709-2.069c0.75-0.627,1.984-1.028,3.077-0.808
		c0.542,0.093,1.027,0.28,1.456,0.505c0.212,0.114,0.416,0.236,0.608,0.364l0.28,0.196l0.069,0.051l0.144,0.123l0.104,0.095
		l0.849,0.747c0.301,0.344,0.605,0.711,0.896,1.079c2.037,2.888,2.731,6.082,3.195,9.12c0.863,6.11,0.71,12.007,1.286,17.483
		c0.303,2.715,0.659,5.377,1.53,7.572c0.4,1.124,0.984,2.043,1.639,2.784c0.623,0.788,1.462,1.218,2.36,1.567
		c1.872,0.615,4.187,0.385,6.374-0.099c0.532-0.134,1.144-0.247,1.602-0.391l0.856-0.271c0.271-0.089,0.482-0.185,0.729-0.275
		c0.957-0.362,1.927-0.851,2.786-1.389c3.528-2.113,5.864-5.4,6.664-8.621c0.839-3.244,0.11-6.292-1.189-8.384
		c-1.303-2.125-2.976-3.373-4.114-4.137c-0.571-0.398-1.041-0.659-1.362-0.829c-0.316-0.176-0.481-0.267-0.481-0.267l0.15-0.364
		c0,0,0.18,0.064,0.526,0.19c0.354,0.121,0.873,0.306,1.531,0.617c1.292,0.622,3.233,1.688,5.033,3.887
		c1.782,2.155,3.119,5.767,2.439,9.798c-0.596,4.015-3.176,8.207-7.266,11.045c-1.029,0.713-2.104,1.328-3.324,1.867
		c-0.301,0.13-0.63,0.285-0.915,0.394l-0.841,0.311c-0.679,0.247-1.257,0.381-1.898,0.575c-0.316,0.087-0.628,0.188-0.954,0.265
		l-1.005,0.183l-1.014,0.176c-0.343,0.051-0.709,0.053-1.065,0.08l-1.081,0.059c-0.368-0.01-0.751-0.05-1.129-0.078
		c-0.753-0.02-1.528-0.228-2.308-0.431c-1.523-0.499-3.102-1.351-4.204-2.622c-1.125-1.232-1.941-2.677-2.461-4.118
		c-1.119-2.902-1.476-5.836-1.676-8.747c-0.398-5.813-0.089-11.676-0.677-17.387c-0.291-2.817-0.839-5.687-2.146-7.854
		c-0.161-0.233-0.305-0.472-0.465-0.726l-0.781-0.82l-0.099-0.102c0.023,0.019-0.12-0.111,0.04,0.026l-0.044-0.034l-0.169-0.145
		c-0.114-0.094-0.228-0.175-0.341-0.251c-0.226-0.148-0.444-0.252-0.646-0.308c-0.396-0.109-0.741-0.069-1.193,0.211
		c-0.44,0.279-0.883,0.763-1.267,1.313c-0.769,1.119-1.36,2.471-1.872,3.843c-0.509,1.38-0.938,2.805-1.314,4.245
		c-0.721,2.892-1.24,5.835-1.634,8.77c-0.788,5.874-1.061,11.723-1.073,17.378c-0.006,1.42-0.014,2.827-0.02,4.224l-0.005,0.273
		c-0.008,0.11,0.002,0.152-0.026,0.389c0.611,0.74-4.631,0.207-2.569-0.049l-0.019-0.152l-0.016-0.166l-0.023-0.277
		c-0.024-0.376-0.037-0.753-0.045-1.104c-0.016-0.712-0.017-1.403-0.01-2.092c0.016-2.743,0.096-5.398,0.153-7.983
		c0.146-5.162,0.319-10.026,0.208-14.491c-0.067-4.461-0.367-8.541-1.078-11.994c-0.384-1.709-0.857-3.278-1.549-4.514
		c-0.687-1.239-1.592-2.096-2.621-2.372c-1.034-0.294-2.131-0.09-3.039,0.212c-0.925,0.292-1.67,0.727-2.283,1.045
		c-0.594,0.346-1.054,0.627-1.358,0.843c-0.306,0.203-0.464,0.311-0.464,0.311L397.203,115.351z"/>
	<path fill="#FFFFFF" d="M358.346,158.91c0.479-0.735,0.989-1.456,1.441-2.199c0.434-0.749,0.886-1.472,1.303-2.228l1.255-2.277
		l1.198-2.31c0.414-0.76,0.783-1.55,1.176-2.323l1.156-2.333c0.779-1.552,1.52-3.123,2.266-4.692
		c0.756-1.563,1.509-3.13,2.239-4.707l2.219-4.719l4.395-9.448l3.26,1.125c-0.365,1.337-0.693,2.754-1.007,4.145
		c-0.335,1.395-0.634,2.797-0.915,4.207c-0.586,2.811-1.058,5.65-1.354,8.508c-0.317,2.854-0.414,5.734-0.181,8.583
		c0.272,2.83,0.869,5.683,2.225,8.113c0.656,1.226,1.604,2.238,2.667,3.029c1.062,0.831,2.401,1.138,3.7,1.319
		c0.668,0.03,1.328,0.094,2.009-0.014c0.311-0.032,0.732-0.061,0.946-0.097l0.53-0.117l0.362-0.146
		c1.055-0.445,1.982-1.377,2.712-2.453c1.47-2.188,2.337-4.88,2.984-7.571c0.643-2.711,1.017-5.506,1.215-8.309
		c0.179-2.803,0.148-5.621-0.118-8.396c-0.26-2.771-0.819-5.499-1.645-8.033c-0.826-2.516-2.155-4.849-3.89-6.083
		c-0.866-0.626-1.842-0.903-2.922-0.927c-1.088,0.003-2.263,0.322-3.435,0.804c-1.172,0.495-2.33,1.166-3.446,1.938
		c-0.551,0.406-1.114,0.792-1.646,1.24l-0.771,0.617c-0.272,0.237-0.572,0.5-0.704,0.651c-0.097,0.086-0.165,0.173-0.23,0.256
		c-0.094,0.099-0.105,0.144-0.138,0.176c-0.033,0.04-0.002-0.004-0.001-0.039c-0.001-0.031-0.009-0.049,0-0.201
		c-0.013-0.123-0.061-0.218-0.114-0.37c-0.033-0.066-0.08-0.128-0.136-0.177c-0.048-0.046-0.053-0.07-0.09-0.103
		c-0.19-0.117-0.135-0.08-0.145-0.069c0.083,0.008,0.119,0.049,0.259,0.056c0.222,0.034,0.522,0.038,0.825,0.022
		c1.24-0.063,2.632-0.348,3.97-0.702c2.7-0.736,5.373-1.763,7.958-2.988c2.609-1.189,5.077-2.673,7.471-4.314l0.255,0.301
		c-2.064,2.087-4.423,3.888-6.902,5.505c-2.5,1.584-5.142,2.973-7.976,4.023c-1.428,0.511-2.86,1.002-4.518,1.204
		c-0.419,0.051-0.847,0.085-1.35,0.056c-0.226,0.004-0.541-0.059-0.817-0.11c-0.344-0.117-0.653-0.173-1.11-0.546
		c-0.104-0.091-0.197-0.154-0.294-0.276c-0.1-0.127-0.191-0.268-0.271-0.413c-0.176-0.302-0.223-0.583-0.25-0.887
		c-0.034-0.336,0.013-0.526,0.058-0.736c0.045-0.211,0.109-0.436,0.177-0.551c0.129-0.292,0.279-0.574,0.419-0.759
		c0.141-0.214,0.289-0.419,0.448-0.592c0.337-0.407,0.578-0.637,0.829-0.897l0.878-0.811c0.554-0.519,1.165-0.993,1.759-1.479
		c1.223-0.944,2.54-1.821,4.011-2.537c1.466-0.714,3.132-1.239,4.957-1.309c1.818-0.053,3.775,0.46,5.303,1.504
		c1.565,1.004,2.694,2.387,3.563,3.8c0.879,1.421,1.496,2.907,1.993,4.399c1.001,2.987,1.396,6.035,1.604,9.051
		c0.182,3.018,0.107,6.028-0.191,9.017c-0.303,2.985-0.853,5.953-1.732,8.852c-0.909,2.88-2.094,5.75-4.124,8.233
		c-1.02,1.221-2.305,2.353-4.002,2.913c-0.225,0.065-0.464,0.133-0.678,0.181l-0.539,0.076l-0.067,0.01
		c0.047-0.008-0.103,0.016-0.101,0.014l-0.037,0.001l-0.145,0.002l-0.293,0.005l-0.584,0.007c-0.772,0.052-1.562-0.074-2.335-0.178
		c-1.536-0.319-3.071-0.887-4.296-1.895c-1.229-0.983-2.206-2.225-2.915-3.568c-0.694-1.347-1.239-2.764-1.575-4.212
		c-0.404-1.434-0.633-2.9-0.824-4.366c-0.364-2.931-0.465-5.881-0.471-8.827c0.01-2.948,0.195-5.89,0.475-8.824
		c0.295-2.943,0.728-5.828,1.364-8.766l3.258,1.123c-0.693,1.624-1.437,3.207-2.165,4.804c-0.749,1.581-1.533,3.15-2.311,4.721
		c-0.785,1.566-1.563,3.14-2.399,4.681c-0.82,1.547-1.667,3.088-2.512,4.623c-0.867,1.525-1.756,3.041-2.666,4.546
		c-0.442,0.758-0.91,1.502-1.393,2.24c-0.481,0.738-0.937,1.485-1.439,2.213c-0.492,0.731-0.989,1.46-1.499,2.178l-1.582,2.125
		c-0.549,0.699-1.142,1.377-1.703,2.057c-0.583,0.662-1.224,1.256-1.832,1.89L358.346,158.91z"/>
	<path fill="#FFFFFF" d="M336.725,160.169c0.424-0.202,0.852-0.393,1.278-0.576c0.399-0.212,0.751-0.46,1.116-0.663
		c0.355-0.229,0.696-0.518,1.037-0.765c0.332-0.269,0.636-0.578,0.95-0.855c0.597-0.607,1.148-1.248,1.654-1.933
		c0.27-0.321,0.49-0.695,0.722-1.054c0.231-0.355,0.467-0.711,0.673-1.091c0.448-0.728,0.814-1.518,1.192-2.293
		c0.371-0.785,0.716-1.582,1.043-2.397c0.324-0.813,0.638-1.634,0.941-2.463l0.933-2.495c1.243-3.343,2.583-6.785,3.236-10.38
		c0.165-0.896,0.303-1.8,0.399-2.704c0.082-0.908,0.194-1.814,0.221-2.729c0.099-1.814,0.066-3.664-0.052-5.451l2.126,0.145
		l-0.033,5.52c-0.02,1.838-0.09,3.669-0.134,5.501l-0.175,10.939c-0.04,1.813-0.068,3.622-0.081,5.421
		c0,1.799,0.045,3.587,0.185,5.332c0.089,0.868,0.179,1.731,0.355,2.541c0.186,0.786,0.424,1.597,0.78,2.078
		c0.181,0.245,0.356,0.392,0.6,0.482c0.242,0.087,0.598,0.082,0.971-0.046c0.761-0.215,1.541-0.735,2.284-1.272l0.287,0.27
		c-0.523,0.789-1.1,1.575-2.004,2.174c-0.438,0.298-1.016,0.542-1.689,0.548c-0.682,0.016-1.356-0.304-1.838-0.694
		c-0.981-0.81-1.443-1.783-1.868-2.718c-0.404-0.94-0.706-1.885-0.936-2.831c-0.478-1.893-0.75-3.782-0.942-5.668
		c-0.201-1.884-0.281-3.765-0.311-5.639c-0.035-3.748,0.289-7.467,0.674-11.161c0.198-1.851,0.407-3.694,0.711-5.531
		c0.284-1.839,0.678-3.655,1.048-5.489l2.127,0.145c-0.23,1.88-0.526,3.69-0.758,5.526c-0.145,0.914-0.226,1.832-0.355,2.745
		c-0.127,0.915-0.224,1.831-0.325,2.749c-0.203,1.836-0.336,3.689-0.514,5.551c-0.098,0.931-0.192,1.863-0.328,2.797
		c-0.126,0.932-0.306,1.856-0.498,2.781c-0.209,0.923-0.459,1.836-0.763,2.737c-0.298,0.901-0.654,1.789-1.051,2.663
		c-0.38,0.88-0.833,1.732-1.303,2.578c-0.506,0.831-1.02,1.653-1.622,2.433c-0.282,0.396-0.58,0.786-0.929,1.145
		c-0.333,0.364-0.65,0.734-1.029,1.065c-0.699,0.697-1.505,1.305-2.348,1.829c-0.442,0.236-0.851,0.518-1.314,0.702
		c-0.472,0.178-0.914,0.374-1.395,0.519c-0.494,0.115-0.988,0.231-1.457,0.305c-0.465,0.028-0.932,0.049-1.4,0.058L336.725,160.169z
		"/>
	<path fill="#FFFFFF" d="M312.644,161.101c0,0,0.051-0.035,0.151-0.104c0.102-0.067,0.266-0.17,0.381-0.337
		c0.278-0.286,0.653-0.903,1.013-1.72c0.749-1.646,1.525-4.235,2.332-7.575c0.812-3.341,1.633-7.444,2.531-12.164
		c0.867-4.726,1.829-10.064,2.796-15.905c0.983-5.844,2.05-12.171,3.176-18.863c0.3-1.673,0.604-3.365,0.91-5.082
		c0.327-1.713,0.656-3.447,0.989-5.2c0.652-3.51,1.32-7.095,1.998-10.741c1.379-7.292,2.61-14.859,3.618-22.581
		c1.036-7.708,1.824-15.621,2.414-23.455l0.015-0.337c0.008,0.033-0.016-0.17,0.012,0.143c4.26,0.215,1.199-0.009,2.14,0.086
		l-0.018,0.155l-0.068,0.719l-0.127,1.47l-0.233,2.95c-0.142,1.97-0.285,3.937-0.428,5.899c-0.294,3.926-0.585,7.837-0.878,11.717
		c-0.6,7.756-1.148,15.392-1.588,22.784c-0.447,7.388-0.878,14.529-1.287,21.3c-0.372,6.771-0.708,13.17-0.89,19.076
		c-0.215,5.906-0.274,11.319-0.226,16.108c0.058,4.79,0.362,8.949,0.824,12.326c0.467,3.361,1.238,5.986,2.325,7.334
		c0.529,0.684,1.131,0.962,1.555,1.035c0.429,0.074,0.662,0.026,0.662,0.026l0.064,0.39c0,0-0.255,0.087-0.784,0.065
		c-0.521-0.02-1.337-0.293-2.048-1.015c-1.438-1.438-2.473-4.135-3.314-7.541c-0.848-3.427-1.384-7.651-1.827-12.491
		c-0.452-4.844-0.66-10.314-0.744-16.278c-0.054-5.964,0.025-12.419,0.301-19.234c0.117-3.407,0.284-6.907,0.524-10.479
		c0.223-3.572,0.462-7.22,0.795-10.922c0.637-7.407,1.356-15.053,2.192-22.81c0.418-3.878,0.893-7.783,1.409-11.697
		c0.273-1.955,0.549-3.916,0.824-5.877l0.432-2.944l0.227-1.477l0.124-0.751l0.038-0.211c0.954,0.05-2.103-0.282,2.185-0.064
		c0.026,0.375,0.003,0.234,0.005,0.328l-0.044,0.402c-0.512,3.976-1.128,7.863-1.723,11.771c-0.567,3.903-1.125,7.791-1.647,11.652
		c-1.047,7.722-1.94,15.339-2.709,22.73c-0.42,3.691-0.832,7.32-1.236,10.874c-0.214,1.774-0.427,3.531-0.635,5.266
		c-0.241,1.731-0.479,3.44-0.715,5.127c-1,6.739-2.174,13.074-3.299,18.918c-1.172,5.833-2.33,11.168-3.521,15.863
		c-1.171,4.7-2.355,8.766-3.49,12.072c-1.133,3.306-2.232,5.85-3.235,7.479c-0.516,0.813-0.958,1.387-1.401,1.734
		c-0.209,0.191-0.37,0.259-0.479,0.313s-0.165,0.083-0.165,0.083L312.644,161.101z"/>
	<path fill="#FFFFFF" d="M269.688,160.914c1.355-0.215,2.465-0.841,3.443-1.689c0.97-0.845,1.762-1.892,2.476-2.984
		c1.4-2.215,2.509-4.648,3.52-7.129c1.045-2.468,1.952-5.015,2.953-7.542c1.001-2.528,1.965-5.095,3.139-7.602
		c0.579-1.258,1.189-2.509,1.852-3.746c0.67-1.233,1.37-2.47,2.21-3.64c0.83-1.175,1.746-2.318,2.823-3.362
		c1.079-1.038,2.343-1.953,3.769-2.63c1.416-0.694,3.038-1.026,4.605-1.011c1.576,0.004,3.094,0.357,4.471,0.902
		c2.763,1.098,5.063,2.797,7.163,4.615l-1.115,1.532c-1.481-1.007-3.331-1.806-5.183-2.105c-1.855-0.344-3.809-0.207-5.543,0.525
		c-1.756,0.692-3.266,1.94-4.463,3.438c-1.217,1.495-2.086,3.26-2.829,5.055l-0.519,1.367l-0.418,1.409
		c-0.304,0.927-0.476,1.9-0.712,2.851c-0.217,0.954-0.356,1.934-0.538,2.896c-0.152,0.973-0.254,1.954-0.38,2.928
		c-0.188,1.964-0.349,3.925-0.407,5.899c-0.106,1.955-0.106,3.974-0.126,5.896c0.003,0.525,0.022,0.934,0.054,1.379
		c0.039,0.44,0.091,0.877,0.178,1.243c0.069,0.383,0.227,0.682,0.27,0.727c0.008,0.016,0.01,0.016-0.025-0.033
		c-0.024-0.011-0.074-0.066-0.148-0.1c-0.076-0.012-0.127-0.068-0.201-0.052c-0.033-0.019-0.072-0.014-0.081-0.009
		c0-0.001,0.316-0.138,0.599-0.372c0.291-0.219,0.603-0.513,0.91-0.824c0.611-0.633,1.211-1.361,1.789-2.115
		c1.154-1.517,2.235-3.148,3.279-4.806c1.046-1.66,2.048-3.361,3.029-5.075l2.928-5.168l2.857-5.227
		c1.927-3.471,3.769-7.013,5.614-10.512l7.206-13.676l-3.623,14.922c-0.721,2.971-1.348,6.012-1.985,9.027
		c-0.616,3.022-1.178,6.056-1.673,9.095c-0.471,3.04-0.903,6.091-1.039,9.135c-0.069,1.519-0.081,3.052,0.199,4.493
		c0.146,0.711,0.375,1.415,0.805,1.9c0.409,0.504,1.14,0.578,1.852,0.353l0.146,0.365c-0.371,0.171-0.778,0.313-1.231,0.312
		c-0.451,0.006-0.931-0.173-1.282-0.467c-0.705-0.602-1.047-1.411-1.319-2.182c-0.52-1.568-0.704-3.164-0.838-4.75
		c-0.128-1.586-0.127-3.168-0.106-4.744c0.019-1.578,0.108-3.148,0.222-4.715c0.216-3.136,0.578-6.252,1.001-9.354
		c0.208-1.555,0.438-3.103,0.698-4.646c0.26-1.55,0.524-3.08,0.821-4.644l3.583,1.248c-1.689,3.669-3.513,7.233-5.35,10.814
		c-0.924,1.783-1.909,3.536-2.888,5.298c-0.988,1.753-1.976,3.511-3.045,5.226c-1.062,1.72-2.144,3.431-3.284,5.115
		c-1.142,1.689-2.321,3.357-3.641,4.98c-0.665,0.813-1.36,1.609-2.162,2.388c-0.405,0.387-0.832,0.771-1.352,1.138
		c-0.518,0.355-1.087,0.751-2.063,0.954c-0.252,0.042-0.545,0.058-0.825,0.043c-0.314-0.053-0.633-0.087-0.923-0.237
		c-0.305-0.135-0.575-0.305-0.774-0.503c-0.234-0.2-0.387-0.396-0.516-0.593c-0.507-0.787-0.661-1.467-0.771-2.062
		c-0.108-0.611-0.146-1.176-0.169-1.729c-0.012-0.553-0.015-1.146,0.017-1.618c0.056-1.058,0.164-2.031,0.243-3.052
		c0.073-1.009,0.175-2.015,0.319-3.022c0.233-2.012,0.571-4.017,0.938-6.012l0.639-2.981c0.262-0.985,0.479-1.978,0.776-2.953
		c0.597-1.947,1.247-3.885,2.129-5.735c0.851-1.859,1.881-3.655,3.193-5.268c1.315-1.605,3.006-2.946,4.949-3.785
		c0.968-0.431,2.01-0.688,3.059-0.811c1.051-0.143,2.113-0.124,3.158-0.005c1.047,0.117,2.073,0.363,3.074,0.681
		c1.014,0.322,1.953,0.703,2.945,1.259l-1.115,1.532c-2.149-1.539-4.441-2.898-6.832-3.569c-1.188-0.331-2.387-0.483-3.526-0.399
		c-1.145,0.087-2.224,0.412-3.229,0.952c-2.007,1.089-3.71,2.952-5.161,5.045c-0.718,1.057-1.424,2.149-2.063,3.294
		c-0.646,1.142-1.256,2.319-1.84,3.516c-1.153,2.401-2.295,4.845-3.394,7.325c-1.098,2.48-2.271,4.955-3.511,7.414
		c-0.63,1.225-1.307,2.433-2.033,3.62c-0.724,1.188-1.514,2.349-2.426,3.429c-0.909,1.076-1.912,2.111-3.139,2.88
		c-0.597,0.396-1.262,0.706-1.941,0.927c-0.685,0.211-1.437,0.301-2.097,0.293L269.688,160.914z"/>
	<path fill="#FFFFFF" d="M241.17,160.478c1.175-1.346,2.222-2.706,3.203-4.138c0.951-1.444,1.854-2.902,2.626-4.434
		c0.809-1.511,1.491-3.081,2.145-4.656c0.652-1.58,1.198-3.202,1.717-4.83c1.022-3.265,1.776-6.607,2.463-9.972
		c0.687-3.362,1.272-6.784,1.454-10.242c0.083-1.726,0.051-3.462-0.201-5.151c-0.112-0.846-0.318-1.673-0.601-2.437
		c-0.278-0.729-0.785-1.501-1.212-1.508l-0.039-0.006l-0.021-0.002c0.032-0.004-0.085,0.006,0.069-0.008l-0.021,0.004l-0.164,0.022
		l-0.164,0.021c-0.063,0.004-0.103,0.02-0.102,0.037c-0.024,0.03-0.052,0.033-0.09,0.054c-0.034,0.045-0.072,0.08-0.117,0.113
		c-0.139,0.188-0.22,0.509-0.232,0.862c0.01,0.73,0.275,1.522,0.615,2.256c0.719,1.471,1.833,2.766,3.128,3.757
		c1.301,0.988,2.77,1.727,4.316,2.098c1.544,0.376,3.134,0.464,4.703,0.285c1.575-0.159,3.128-0.586,4.642-1.161
		c1.516-0.582,2.961-1.388,4.373-2.242l5.364-3.25l-2.617,5.783c-0.758,1.678-1.509,3.418-2.22,5.147l-2.143,5.198
		c-1.412,3.47-2.774,6.95-3.994,10.463c-0.593,1.762-1.156,3.528-1.64,5.306c-0.468,1.779-0.883,3.568-1.096,5.356
		c-0.204,1.771-0.251,3.59,0.331,5.131c0.301,0.751,0.784,1.416,1.505,1.85c0.714,0.436,1.614,0.673,2.546,0.729l0.022,0.395
		c-0.956,0.173-1.997,0.188-3.013-0.173c-1.027-0.331-1.902-1.143-2.481-2.057c-0.578-0.926-0.9-1.951-1.105-2.959
		c-0.204-1.013-0.295-2.026-0.308-3.027c-0.027-2.004,0.159-3.975,0.479-5.901c0.302-1.935,0.72-3.834,1.217-5.706
		c0.961-3.753,2.206-7.401,3.613-10.975c0.706-1.785,1.462-3.552,2.262-5.292c0.811-1.743,1.63-3.459,2.521-5.195l2.746,2.533
		c-1.646,0.884-3.342,1.707-5.154,2.294c-1.813,0.584-3.724,0.958-5.667,0.999c-1.943,0.027-3.913-0.299-5.719-1.023
		c-1.815-0.702-3.43-1.814-4.779-3.136c-1.338-1.343-2.428-2.901-3.134-4.656c-0.343-0.886-0.604-1.817-0.572-2.854
		c0.035-0.52,0.139-1.097,0.548-1.61c0.116-0.117,0.24-0.23,0.368-0.335c0.147-0.095,0.334-0.167,0.505-0.231
		c0.205-0.077,0.246-0.043,0.377-0.07l0.164-0.021l0.021-0.002c0.168-0.014,0.063-0.003,0.11-0.005l0.063,0.005l0.126,0.016
		c0.702,0.088,1.146,0.56,1.463,0.949c0.317,0.417,0.532,0.853,0.72,1.288c0.37,0.871,0.603,1.761,0.817,2.644
		c0.394,1.773,0.628,3.563,0.799,5.358c0.169,1.795,0.25,3.601,0.248,5.405c-0.015,1.805-0.102,3.614-0.32,5.409
		c-0.421,3.595-1.333,7.125-2.573,10.535c-0.615,1.706-1.368,3.364-2.174,4.994c-0.808,1.627-1.774,3.179-2.793,4.682
		c-1.06,1.479-2.2,2.901-3.485,4.18c-1.268,1.279-2.69,2.448-4.183,3.406L241.17,160.478z"/>
	<path fill="#FFFFFF" d="M215.628,162.983c-0.669-0.059-1.4-0.166-2.083-0.447c-0.682-0.267-1.368-0.816-1.668-1.578
		c-0.318-0.745-0.351-1.53-0.309-2.258c0.049-0.731,0.166-1.444,0.335-2.131c0.674-2.747,1.661-5.318,2.63-7.888l2.94-7.663
		l2.845-7.664c1.834-5.126,3.566-10.282,5.16-15.484l2.318-7.823c0.73-2.619,1.513-5.229,2.216-7.859
		c1.496-5.239,2.854-10.524,4.101-15.842c0.613-2.66,1.213-5.327,1.76-8.005c0.507-2.684,1.042-5.367,1.444-8.07
		c0.423-2.7,0.837-5.402,1.152-8.118c0.343-2.712,0.643-5.43,0.881-8.153c0.271-2.721,0.444-5.45,0.617-8.178
		c0.168-2.729,0.313-5.458,0.43-8.188l2.24,0.221l-1.35,15.993l-1.406,15.983c-0.458,5.329-0.886,10.658-1.277,15.988l-1.223,15.983
		c-0.44,5.322-0.772,10.65-1.141,15.976c-0.335,5.325-0.631,10.652-0.82,15.977c-0.169,5.322-0.324,10.653-0.015,15.942
		c0.181,2.633,0.37,5.286,0.991,7.808c0.322,1.233,0.746,2.516,1.57,3.332c0.416,0.383,0.938,0.582,1.524,0.466
		c0.582-0.107,1.16-0.432,1.679-0.823l0.255,0.301c-0.494,0.474-1.061,0.911-1.781,1.146c-0.717,0.254-1.625,0.071-2.229-0.418
		c-1.197-0.989-1.735-2.347-2.225-3.63c-0.916-2.615-1.403-5.306-1.754-7.991c-0.353-2.688-0.582-5.38-0.757-8.071
		c-0.171-2.692-0.301-5.388-0.339-8.077c-0.113-5.386-0.051-10.764,0.111-16.134c0.131-5.371,0.452-10.73,0.758-16.091
		c0.153-2.68,0.383-5.354,0.588-8.028c0.221-2.673,0.421-5.349,0.697-8.016c0.525-5.337,1.086-10.671,1.676-16
		c0.584-5.329,1.209-10.653,1.911-15.968c0.705-5.316,1.501-10.615,2.323-15.92l2.239,0.221l-0.911,8.184l-1.011,8.167l-1.051,8.159
		l-1.106,8.15l-1.158,8.148c-0.377,2.719-0.776,5.437-1.207,8.15c-0.871,5.427-1.877,10.836-3.036,16.223
		c-0.636,2.678-1.251,5.362-1.998,8.015c-0.743,2.652-1.494,5.307-2.353,7.925c-1.689,5.245-3.547,10.438-5.635,15.536
		c-2.065,5.104-4.356,10.115-6.707,15.054c-1.138,2.481-2.365,4.933-3.238,7.444c-0.406,1.235-0.8,2.565-0.49,3.675
		c0.289,1.133,1.64,1.694,2.948,1.972L215.628,162.983z"/>
	<path fill="#FFFFFF" d="M190.293,162.076l1.04-0.989c0.306-0.35,0.607-0.666,0.893-1.018c0.588-0.699,1.1-1.453,1.617-2.194
		c0.491-0.768,0.955-1.547,1.409-2.333c0.443-0.799,0.858-1.606,1.274-2.422c0.426-0.805,0.799-1.646,1.183-2.477
		c0.387-0.833,0.755-1.674,1.124-2.519l1.088-2.544l1.128-2.54c1.54-3.381,3.279-6.761,4.461-10.333
		c0.292-0.895,0.562-1.794,0.801-2.703c0.223-0.913,0.46-1.821,0.649-2.742c0.379-1.837,0.682-3.709,0.874-5.56l0.312-2.988
		l1.629,2.731c1.003,1.685,2.003,3.349,2.924,5.066c0.933,1.708,1.767,3.465,2.586,5.229c1.632,3.534,3.187,7.122,4.382,10.864
		c0.585,1.874,1.108,3.775,1.507,5.724c0.401,1.943,0.725,3.921,0.82,5.958c0.061,1.016,0.048,2.048-0.057,3.094
		c-0.101,1.043-0.311,2.113-0.766,3.15c-0.431,1.026-1.269,2.058-2.385,2.48c-1.109,0.422-2.214,0.271-3.155-0.029l0.056-0.389
		c0.949-0.04,1.874-0.257,2.486-0.737c0.62-0.472,0.915-1.177,1.074-1.966c0.27-1.614,0.01-3.439-0.349-5.225
		c-0.379-1.79-0.879-3.589-1.438-5.375c-0.57-1.787-1.168-3.574-1.795-5.358c-1.238-3.575-2.459-7.184-3.789-10.771
		c-0.662-1.793-1.362-3.574-2.003-5.385c-0.657-1.801-1.272-3.637-1.953-5.42l1.941-0.256c-0.563,1.846-1.117,3.647-1.643,5.473
		c-0.508,1.824-1.031,3.643-1.462,5.487c-0.896,3.679-1.461,7.488-2.611,11.157c-0.561,1.836-1.29,3.623-2.135,5.359
		c-0.406,0.877-0.872,1.729-1.331,2.582c-0.496,0.838-0.984,1.675-1.529,2.486c-0.513,0.827-1.126,1.602-1.728,2.372
		c-0.318,0.378-0.623,0.763-0.949,1.13l-1.037,1.062c-0.36,0.341-0.73,0.674-1.108,0.989c-0.383,0.313-0.799,0.599-1.192,0.893
		c-0.411,0.281-0.878,0.519-1.301,0.767c-0.437,0.214-0.883,0.374-1.333,0.55L190.293,162.076z"/>
	<path fill="#FFFFFF" d="M143.937,162.15c0.433-0.199,0.937-0.321,1.311-0.583c0.388-0.242,0.765-0.46,1.121-0.775l0.535-0.432
		l0.49-0.494c0.335-0.313,0.628-0.68,0.926-1.033c0.308-0.342,0.576-0.727,0.846-1.107c0.28-0.367,0.531-0.765,0.775-1.164
		c0.509-0.779,0.967-1.605,1.41-2.434c0.443-0.827,0.842-1.684,1.243-2.536c0.391-0.86,0.785-1.72,1.136-2.602
		c0.368-0.87,0.699-1.762,1.039-2.646c0.333-0.892,0.676-1.773,0.983-2.677c0.321-0.895,0.618-1.799,0.916-2.703l0.873-2.724
		c0.578-1.815,1.114-3.65,1.623-5.49c0.519-1.838,1.047-3.675,1.528-5.524c0.532-1.832,1.002-3.702,1.496-5.522l3.926-14.462
		l-0.84,14.815c-0.198,3.494-0.423,7.03-0.526,10.553c-0.05,1.763-0.121,3.527-0.108,5.29c0.017,1.763,0.023,3.527,0.134,5.285
		c0.178,3.516,0.505,7.034,1.178,10.464c0.328,1.708,0.765,3.414,1.43,4.934c0.326,0.734,0.763,1.475,1.196,1.787
		c0.216,0.135,0.316,0.118,0.445,0.101c0.083-0.055,0.162-0.047,0.281-0.15c0.107-0.057,0.228-0.155,0.347-0.283
		c0.476-0.48,0.945-1.142,1.334-1.87c0.405-0.715,0.765-1.485,1.104-2.266c0.668-1.572,1.267-3.195,1.837-4.839
		c1.123-3.29,2.137-6.646,3.111-10.016c0.971-3.37,1.858-6.775,2.719-10.187l2.579-10.245l4.137,0.763l-0.64,5.646L185.3,132.7
		c-0.348,3.783-0.595,7.574-0.751,11.357c-0.118,3.779-0.171,7.572,0.227,11.28c0.104,0.926,0.255,1.84,0.449,2.731
		c0.196,0.893,0.448,1.771,0.841,2.551c0.391,0.772,0.932,1.456,1.693,1.72c0.754,0.287,1.695,0.099,2.545-0.272l0.191,0.345
		c-0.808,0.523-1.826,1.017-2.96,0.786c-0.55-0.108-1.067-0.374-1.501-0.715c-0.418-0.353-0.778-0.758-1.079-1.186
		c-0.604-0.861-1.018-1.799-1.375-2.736c-0.352-0.941-0.607-1.905-0.837-2.867c-0.452-1.925-0.738-3.866-0.943-5.807
		c-0.218-1.941-0.345-3.884-0.418-5.823c-0.168-3.881-0.103-7.752,0.039-11.615c0.072-1.932,0.209-3.856,0.345-5.784
		c0.151-1.933,0.284-3.845,0.519-5.793l4.137,0.763l-1.324,5.151c-0.436,1.723-0.931,3.427-1.427,5.133
		c-0.993,3.411-2.013,6.817-3.122,10.202c-1.109,3.386-2.279,6.761-3.699,10.069c-0.704,1.654-1.476,3.293-2.36,4.898
		c-0.447,0.802-0.914,1.599-1.458,2.374c-0.528,0.774-1.143,1.544-1.986,2.233c-0.208,0.171-0.438,0.34-0.731,0.479
		c-0.248,0.157-0.607,0.251-0.948,0.323c-0.752,0.111-1.543-0.188-2.02-0.615c-0.911-0.855-1.238-1.784-1.577-2.67
		c-0.597-1.787-0.885-3.56-1.167-5.33c-0.513-3.544-0.798-7.08-1.083-10.618l-0.804-10.615c-0.231-3.548-0.48-7.083-0.561-10.657
		l3.085,0.35c-0.317,1.956-0.755,3.838-1.174,5.745l-0.729,2.83c-0.257,0.94-0.495,1.887-0.788,2.814
		c-1.137,3.73-2.37,7.439-3.895,11.051c-0.744,1.812-1.55,3.603-2.465,5.348c-0.439,0.879-0.926,1.739-1.407,2.601
		c-0.499,0.854-1.028,1.689-1.587,2.512c-0.566,0.815-1.13,1.632-1.785,2.392c-0.317,0.387-0.641,0.767-0.997,1.122
		c-0.345,0.363-0.685,0.73-1.073,1.059c-0.371,0.34-0.745,0.674-1.171,0.955l-0.615,0.44l-0.665,0.376
		c-0.42,0.269-0.926,0.447-1.41,0.618c-0.48,0.195-0.955,0.208-1.431,0.321L143.937,162.15z"/>
	<path fill="#FFFFFF" d="M108.435,161.618c0,0,0.205-0.172,0.6-0.508c0.397-0.344,0.936-0.839,1.609-1.574
		c1.366-1.432,3.204-3.693,5.351-6.718c2.151-3.021,4.604-6.81,7.302-11.226c2.678-4.43,5.619-9.482,8.669-15.081
		c3.089-5.576,6.26-11.717,9.59-18.219c1.656-3.26,3.356-6.608,5.095-10.028c1.713-3.437,3.409-6.976,5.066-10.606
		c3.34-7.246,6.413-14.938,8.627-23.011c0.524-2.023,1.037-4.06,1.432-6.122c0.38-2.064,0.69-4.144,0.852-6.228
		c0.135-2.082,0.122-4.185-0.25-6.167c-0.182-0.99-0.469-1.941-0.884-2.788c-0.438-0.828-1-1.535-1.7-2.024
		c-0.724-0.454-1.574-0.674-2.472-0.752l-0.693,0.005c-0.1,0.002-0.264-0.005-0.311,0.004l-0.398,0.041
		c-0.275,0.025-0.429,0.076-0.652,0.111c-0.22,0.064-0.444,0.101-0.659,0.183c-1.741,0.548-3.248,1.776-4.507,3.25
		c-1.268,1.479-2.304,3.215-3.19,5.03c-0.897,1.813-1.658,3.71-2.321,5.644c-2.64,7.757-4.021,15.877-5.003,23.724
		c-0.464,3.935-0.873,7.815-1.178,11.625c-0.291,3.811-0.535,7.544-0.729,11.185c-0.345,7.279-0.489,14.181-0.432,20.548
		c0.029,6.369,0.269,12.202,0.595,17.363c0.333,5.161,0.901,9.633,1.527,13.273c0.639,3.63,1.457,6.452,2.451,8.086
		c0.479,0.829,1.035,1.295,1.46,1.435c0.428,0.138,0.675,0.059,0.672,0.074l0.076,0.387c0.002-0.021-0.294,0.12-0.88,0.007
		c-0.584-0.12-1.321-0.634-1.946-1.478c-1.276-1.689-2.356-4.522-3.366-8.165c-1.006-3.653-1.81-8.167-2.53-13.359
		c-0.73-5.195-1.239-11.088-1.572-17.525c-0.294-6.437-0.412-13.425-0.157-20.812c0.105-3.694,0.303-7.488,0.64-11.359
		c0.322-3.871,0.725-7.825,1.326-11.825c1.205-7.993,2.765-16.265,5.772-24.369c1.555-4.015,3.447-8.074,6.601-11.469
		c1.589-1.65,3.6-3.13,6-3.727c0.293-0.087,0.6-0.125,0.897-0.188c0.305-0.038,0.676-0.09,0.933-0.097l0.399-0.016
		c0.219-0.012,0.322,0.01,0.489,0.015l0.907,0.055c1.218,0.173,2.459,0.576,3.504,1.345c1.026,0.793,1.748,1.85,2.242,2.937
		c0.467,1.1,0.73,2.228,0.875,3.345c0.294,2.237,0.171,4.433-0.074,6.581c-0.485,4.302-1.487,8.458-2.588,12.535
		c-2.277,8.136-5.035,15.969-7.827,23.509c-1.417,3.762-2.894,7.431-4.393,10.999c-0.752,1.783-1.503,3.544-2.271,5.274
		c-0.799,1.716-1.586,3.408-2.363,5.08c-3.201,6.643-6.559,12.757-9.771,18.334c-3.261,5.548-6.396,10.554-9.379,14.859
		c-1.471,2.165-2.916,4.147-4.291,5.952c-1.364,1.813-2.668,3.441-3.897,4.872c-2.437,2.88-4.562,4.972-6.125,6.269
		c-0.77,0.649-1.433,1.116-1.856,1.399c-0.435,0.281-0.66,0.426-0.66,0.426L108.435,161.618z"/>
	<path fill="#FFFFFF" d="M63.589,145.058c0,0,0.021-0.263,0.064-0.769c0.062-0.506,0.216-1.301,0.507-2.255
		c0.594-1.922,1.814-4.602,3.664-7.813c1.846-3.214,4.295-6.98,7.28-11.157c2.965-4.196,6.477-8.79,10.358-13.754
		c3.918-4.935,8.184-10.252,12.813-15.771c1.164-1.374,2.344-2.767,3.538-4.177c1.209-1.397,2.432-2.811,3.669-4.24
		c2.47-2.862,4.976-5.799,7.496-8.809c5.043-6.007,10.111-12.376,14.408-19.375c1.05-1.76,2.065-3.55,2.943-5.401
		c0.857-1.852,1.619-3.777,1.943-5.713c0.126-0.958,0.147-1.934-0.138-2.722c-0.285-0.782-0.869-1.307-1.692-1.583
		c-0.823-0.255-1.758-0.388-2.74-0.313c-0.48-0.008-0.979,0.075-1.471,0.128l-0.37,0.043c0.002-0.001-0.135,0.017-0.02,0
		l-0.095,0.021l-0.192,0.043l-0.766,0.175c-0.488,0.136-0.83,0.317-1.254,0.476c-0.408,0.242-0.838,0.423-1.227,0.701
		c-0.79,0.529-1.536,1.141-2.218,1.84c-1.373,1.386-2.545,3.015-3.586,4.726c-2.068,3.448-3.665,7.206-5.05,11.007
		c-2.748,7.628-4.603,15.482-6.042,23.128c-0.698,3.831-1.348,7.608-1.894,11.321c-0.532,3.714-1.014,7.357-1.437,10.905
		c-0.805,7.106-1.376,13.855-1.658,20.089c-0.323,6.235-0.349,11.958-0.176,17.015c0.175,5.058,0.718,9.437,1.532,12.925
		c0.417,1.737,0.939,3.251,1.617,4.406c0.668,1.165,1.546,1.892,2.386,2.058c0.844,0.185,1.559-0.081,1.992-0.27
		c0.439-0.218,0.666-0.33,0.666-0.33l0.222,0.325c0,0-0.228,0.147-0.668,0.438c-0.446,0.254-1.205,0.674-2.324,0.575
		c-1.133-0.083-2.332-0.959-3.194-2.187c-0.889-1.229-1.591-2.792-2.203-4.572c-1.22-3.566-2.002-8.045-2.566-13.179
		c-0.578-5.138-0.819-10.958-0.795-17.297c0.05-6.339,0.366-13.202,1.088-20.428c0.339-3.615,0.78-7.322,1.36-11.093
		c0.566-3.772,1.215-7.618,2.052-11.498c1.665-7.757,3.715-15.737,6.789-23.569c0.777-1.954,1.635-3.893,2.578-5.803
		c0.978-1.897,2.038-3.77,3.25-5.57c1.242-1.782,2.641-3.495,4.315-4.986c1.695-1.472,3.611-2.757,6.026-3.269l0.775-0.132
		l0.194-0.033l0.097-0.016c0.181-0.029,0.11-0.012,0.177-0.02l0.414-0.026c0.552-0.029,1.095-0.087,1.665-0.052
		c1.111-0.015,2.29,0.175,3.43,0.619c0.282,0.144,0.567,0.269,0.836,0.438c0.256,0.203,0.515,0.406,0.755,0.624
		c0.205,0.26,0.409,0.522,0.593,0.792c0.135,0.293,0.263,0.592,0.383,0.889c0.357,1.228,0.223,2.396,0.032,3.486
		c-0.438,2.177-1.304,4.136-2.245,6.022c-0.939,1.886-1.979,3.7-3.065,5.471c-1.108,1.756-2.204,3.506-3.352,5.209
		c-1.159,1.694-2.314,3.378-3.46,5.053c-2.336,3.317-4.629,6.606-6.95,9.792c-2.314,3.19-4.631,6.296-6.913,9.323
		c-1.146,1.509-2.28,3.003-3.399,4.478c-1.144,1.454-2.275,2.89-3.39,4.308c-4.498,5.637-8.896,10.837-12.883,15.687
		c-4.03,4.818-7.671,9.268-10.866,13.23c-3.172,3.979-5.881,7.486-7.965,10.471c-2.083,2.98-3.552,5.434-4.335,7.197
		c-0.399,0.889-0.626,1.557-0.754,2.046c-0.107,0.497-0.164,0.754-0.164,0.754L63.589,145.058z"/>
	<path fill="#FFFFFF" d="M55.021,63.095c0,0,0.18-0.125,0.528-0.368c0.365-0.229,0.849-0.62,1.434-1.131
		c0.553-0.561,1.252-1.248,1.748-2.22c0.493-0.966,0.748-2.182,0.526-3.518c-0.245-1.331-0.899-2.765-1.927-4.152
		c-1.013-1.394-2.357-2.756-3.909-4.073c-1.555-1.313-3.375-2.543-5.347-3.636c-0.984-0.533-2.043-1.016-3.048-1.318l-0.128-0.03
		c-0.004,0-0.019-0.002,0.023,0.006c0,0,0.069,0.011,0.118,0.011c0.105-0.023,0.193,0.077,0.785-0.197
		c1.405-1.084,0.524-2.421,0.502-2.304c-0.085-0.116-0.162-0.184-0.171-0.194c-0.059-0.053-0.056-0.048-0.055-0.05l0.099,0.056
		c0.197,0.108,0.466,0.238,0.731,0.358c0.537,0.246,1.115,0.472,1.698,0.705c2.344,0.917,4.894,1.694,7.559,2.299
		c2.667,0.601,5.452,1.082,8.325,1.272c2.868,0.211,5.829,0.152,8.773-0.361c2.939-0.512,5.869-1.532,8.473-3.251l1.01-0.695
		c0.144-0.104,0.395-0.25,0.64-0.382c0.25-0.113,0.48-0.223,0.762-0.291c0.537-0.152,1.186-0.168,1.758,0.029
		c0.575,0.192,1.036,0.543,1.385,0.913c0.69,0.756,1.082,1.59,1.423,2.408c0.334,0.824,0.585,1.658,0.796,2.498
		c0.805,3.361,1.194,6.771,1.497,10.216c0.292,3.444,0.479,6.917,0.609,10.406c0.163,3.487,0.246,6.994,0.265,10.5
		c0.071,7.012-0.063,14.035-0.572,20.922c-0.492,6.889-1.192,13.655-2.048,20.188c-0.411,3.271-0.939,6.468-1.496,9.597
		c-0.547,3.128-1.178,6.178-1.89,9.126c-1.383,5.907-3.031,11.442-5.127,16.412c-1.073,2.477-2.263,4.815-3.787,6.903
		c-0.774,1.036-1.635,2.021-2.729,2.813c-1.072,0.781-2.487,1.391-3.937,1.277c-0.733-0.056-1.325-0.217-2.011-0.527
		c-0.228-0.12-0.453-0.239-0.678-0.357c-0.246-0.146-0.521-0.336-0.771-0.508c-0.955-0.714-1.661-1.575-2.197-2.473
		c-1.016-1.817-1.373-3.614-1.533-5.185c-0.28-3.159-0.034-5.574,0.131-7.216c0.193-1.641,0.331-2.506,0.331-2.506l0.393,0.032
		c0,0-0.017,0.874,0.024,2.505c0.041,1.62,0.07,4.039,0.672,6.936c0.32,1.43,0.815,2.984,1.733,4.315
		c0.473,0.644,1.069,1.226,1.752,1.644l0.506,0.286c0.232,0.1,0.467,0.2,0.703,0.304c0.263,0.084,0.701,0.187,1.031,0.168
		c1.4,0.018,2.885-1.438,4.062-3.264c1.19-1.846,2.165-4.072,3.042-6.449c1.764-4.771,3.125-10.216,4.384-16.009
		c0.609-2.903,1.18-5.903,1.757-8.974c0.558-3.075,1.066-6.23,1.598-9.439c1.037-6.422,1.895-13.104,2.615-19.904
		c0.698-6.806,1.43-13.729,1.886-20.675c0.209-3.475,0.361-6.952,0.422-10.419c0.022-3.465-0.06-6.918-0.337-10.326
		c-0.124-1.705-0.334-3.394-0.591-5.061c-0.253-1.665-0.578-3.313-1.066-4.881c-0.24-0.782-0.513-1.548-0.844-2.26
		c-0.321-0.713-0.75-1.366-1.224-1.804c-0.996-0.872-1.659-0.296-3.111,0.927c-2.714,2.117-5.874,3.571-9.084,4.393
		c-3.218,0.833-6.473,1.06-9.591,0.945c-6.258-0.291-11.939-1.875-16.952-3.919c-0.631-0.259-1.243-0.548-1.86-0.858
		c-0.313-0.159-0.613-0.316-0.961-0.529c-0.087-0.054-0.183-0.115-0.301-0.199c-0.063-0.047-0.125-0.088-0.243-0.194
		c-0.041-0.036-0.143-0.133-0.253-0.278c-0.041,0.089-0.952-1.299,0.496-2.406c0.629-0.291,0.757-0.19,0.901-0.213
		c0.088,0.003,0.196,0.017,0.235,0.023c0.12,0.019,0.182,0.036,0.254,0.053l0.325,0.095c1.377,0.48,2.525,1.089,3.613,1.735
		c2.162,1.293,3.992,2.788,5.6,4.317c1.604,1.533,2.955,3.146,3.958,4.838c1.02,1.666,1.683,3.452,1.783,5.159
		c0.092,1.713-0.407,3.261-1.159,4.313c-0.747,1.067-1.604,1.718-2.284,2.222c-0.731,0.461-1.287,0.773-1.673,0.939
		c-0.381,0.185-0.579,0.28-0.579,0.28L55.021,63.095z"/>
	<g>
		<path fill="#FFFFFF" d="M251.107,74.776c-2.747,0.008-5.198-0.544-5.378-0.586l-0.155-0.064
			c-14.927-9.44-22.343-9.53-25.937-7.945c-3.191,1.408-3.736,4.29-3.74,4.318l-0.985-0.174c0.025-0.14,0.648-3.438,4.321-5.06
			c5.538-2.446,14.556,0.236,26.8,7.967c0.815,0.174,7.584,1.526,10.567-0.854c0.936-0.747,1.389-1.773,1.385-3.138l1-0.002
			c0.005,1.666-0.589,2.986-1.763,3.923C255.658,74.411,253.289,74.771,251.107,74.776z"/>
		<path fill="#FFFFFF" d="M251.081,75.894c-2.912,0.008-5.497-0.582-5.605-0.607l-0.341-0.107l-0.163-0.103
			c-8.993-5.688-16.137-8.564-21.234-8.55c-1.401,0.004-2.628,0.234-3.646,0.684c-2.591,1.143-3.07,3.399-3.089,3.494l-0.096,0.479
			l-3.192-0.563l0.09-0.495c0.03-0.164,0.779-4.038,4.975-5.89c5.865-2.587,15.213,0.091,27.688,7.94
			c1.122,0.233,2.901,0.474,4.635,0.469c2.208-0.006,3.867-0.402,4.798-1.146c0.658-0.526,0.964-1.243,0.961-2.255l-0.002-0.5
			l3.25-0.009l0.002,0.5c0.006,2.028-0.73,3.645-2.186,4.806C256.395,75.263,254.093,75.885,251.081,75.894z M245.597,74.29
			l0.103,0.023c0.105,0.025,2.581,0.589,5.379,0.582c2.78-0.008,4.873-0.557,6.222-1.632c1.085-0.865,1.687-2.048,1.792-3.521
			l-1.255,0.003c-0.101,1.068-0.541,1.92-1.313,2.539c-1.126,0.898-2.949,1.357-5.421,1.364c-1.857,0.005-3.765-0.26-4.932-0.509
			l-0.162-0.066c-12.168-7.669-21.288-10.364-26.827-7.919c-2.92,1.288-3.948,3.646-4.268,4.667l1.238,0.219
			c0.296-0.876,1.172-2.699,3.535-3.742c1.146-0.506,2.507-0.765,4.047-0.769c5.291-0.015,12.616,2.914,21.772,8.705L245.597,74.29z
			"/>
	</g>
	<g>
		<path fill="#FFFFFF" d="M342.84,79.244c-2.746,0.007-5.196-0.545-5.376-0.586l-0.155-0.064
			c-14.903-9.427-22.316-9.529-25.914-7.955c-3.19,1.396-3.742,4.211-3.764,4.331l-0.984-0.176c0.024-0.139,0.648-3.438,4.322-5.06
			c5.54-2.443,14.555,0.236,26.8,7.968c0.815,0.175,7.586,1.526,10.565-0.854c0.937-0.748,1.39-1.774,1.386-3.139l1-0.002
			c0.005,1.667-0.589,2.987-1.763,3.924C347.391,78.878,345.022,79.237,342.84,79.244z"/>
		<path fill="#FFFFFF" d="M342.814,80.361c-2.859,0.008-5.332-0.544-5.604-0.607l-0.343-0.108l-0.162-0.103
			c-8.989-5.686-16.134-8.562-21.234-8.548c-1.379,0.004-2.59,0.227-3.599,0.662c-2.633,1.138-3.117,3.428-3.137,3.524l-0.097,0.482
			l-3.187-0.577l0.086-0.49c0.029-0.164,0.754-4.028,4.976-5.893c5.867-2.588,15.212,0.089,27.688,7.94
			c1.121,0.233,2.899,0.474,4.632,0.469c2.209-0.006,3.867-0.402,4.8-1.147c0.659-0.526,0.965-1.243,0.962-2.256l-0.001-0.5
			l3.25-0.009l0.001,0.5c0.006,2.028-0.73,3.646-2.187,4.807C348.128,79.729,345.825,80.353,342.814,80.361z M337.33,78.756
			l0.103,0.023c0.106,0.025,2.585,0.59,5.379,0.582c2.779-0.008,4.873-0.558,6.223-1.634c1.086-0.866,1.688-2.049,1.793-3.522
			l-1.255,0.003c-0.101,1.069-0.541,1.922-1.315,2.541c-1.126,0.899-2.95,1.358-5.422,1.365c-1.856,0.005-3.764-0.26-4.93-0.509
			l-0.161-0.066c-12.167-7.669-21.29-10.365-26.826-7.918c-2.94,1.298-3.959,3.652-4.271,4.667l1.24,0.225
			c0.299-0.887,1.187-2.733,3.588-3.771c1.135-0.49,2.478-0.74,3.993-0.745c5.294-0.015,12.62,2.914,21.773,8.703L337.33,78.756z"/>
	</g>
	<circle fill="#FFFFFF" cx="353.138" cy="111.656" r="2.813"/>
</g>
</svg>
