<?xml version="1.0" encoding="utf-8"?>
<!-- Generator: Adobe Illustrator 16.0.0, SVG Export Plug-In . SVG Version: 6.00 Build 0)  -->
<!DOCTYPE svg PUBLIC "-//W3C//DTD SVG 1.1//EN" "http://www.w3.org/Graphics/SVG/1.1/DTD/svg11.dtd">
<svg version="1.1" id="Layer_1" xmlns="http://www.w3.org/2000/svg" xmlns:xlink="http://www.w3.org/1999/xlink" x="0px" y="0px"
	 width="500px" height="500px" viewBox="0 0 500 500" enable-background="new 0 0 500 500" xml:space="preserve">
<g id="Logo">
	<path fill="#231F20" d="M82.254,285.592c0,0-1.877,0.379-5.298,1.428c-3.403,1.069-8.409,2.76-14.257,5.912
		c-2.904,1.592-6.021,3.559-9.008,6.154c-2.957,2.597-5.801,5.896-7.516,10.024c-1.765,4.103-2.097,8.989-0.975,13.859
		c0.559,2.437,1.44,4.877,2.577,7.275c1.129,2.378,2.516,4.833,4.163,6.942c3.26,4.279,8.061,7.644,13.712,8.913
		c5.628,1.341,11.872,0.958,17.962-0.598c3.024-0.786,6.131-1.851,8.881-3.236c0.323-0.162,0.682-0.37,0.813-0.465l0.938-0.732
		l2.006-1.577c1.391-1.034,2.549-2.156,3.824-3.24c4.984-4.467,9.773-9.497,14.238-14.919c8.946-10.862,16.775-23.268,23.893-36.313
		c3.556-6.531,6.908-13.25,10.061-20.1c3.197-6.831,6.27-13.76,9.145-20.777c5.768-14.03,10.913-28.329,15.731-42.495
		c2.372-7.097,4.642-14.168,6.792-21.188c2.117-7.027,4.209-13.973,6.187-20.831c3.97-13.714,7.411-27.085,10.679-39.771
		c3.258-12.689,6.026-24.767,8.64-35.907c2.572-11.15,4.762-21.412,6.726-30.508c1.923-9.104,3.533-17.057,4.86-23.609
		c1.285-6.563,2.297-11.719,2.985-15.234c0.654-3.525,1.003-5.404,1.003-5.404s-0.186,1.904-0.528,5.473
		c-0.363,3.567-0.905,8.801-1.751,15.442c-0.815,6.646-1.91,14.702-3.316,23.923c-1.363,9.23-3.12,19.606-5.17,30.907
		c-2.019,11.308-4.521,23.5-7.324,36.367c-2.766,12.877-6.137,26.355-9.795,40.262c-3.648,13.91-7.956,28.146-12.644,42.519
		c-2.382,7.175-4.833,14.396-7.51,21.571c-2.683,7.173-5.513,14.327-8.48,21.429c-2.968,7.101-6.129,14.129-9.447,21.058
		c-3.352,6.908-6.911,13.693-10.683,20.3s-7.73,13.051-11.968,19.211c-4.284,6.133-8.818,11.996-13.646,17.467
		c-4.835,5.471-9.926,10.541-15.457,14.998c-1.401,1.087-2.784,2.276-4.176,3.215l-2.078,1.477l-1.1,0.78
		c-0.572,0.373-0.962,0.558-1.395,0.77c-3.316,1.551-6.581,2.548-9.925,3.331c-6.642,1.488-13.542,1.813-19.916,0.04
		c-6.406-1.679-11.824-5.755-15.309-10.707c-1.782-2.485-3.075-5-4.219-7.605c-1.125-2.597-1.991-5.253-2.512-7.928
		c-1.064-5.346-0.439-10.801,1.665-15.196c2.058-4.431,5.224-7.78,8.397-10.353c3.205-2.575,6.473-4.448,9.505-5.914
		c6.086-2.909,11.183-4.356,14.646-5.267C80.362,285.879,82.254,285.592,82.254,285.592z"/>
	<path fill="#231F20" d="M190.5,308.215c-4-1.539-6.573-3.355-9.975-5.205c-3.373-1.899-6.492-3.917-9.751-6.032
		c-3.274-2.099-6.328-4.393-9.431-6.767c-3.097-2.382-6.065-4.887-8.988-7.532c-5.782-5.345-11.125-11.28-15.643-18.033
		c-4.484-6.739-8.021-14.47-9.446-22.934c-0.336-2.112-0.564-4.255-0.632-6.415l-0.011-1.614c0.005-0.498-0.015-0.919,0.009-1.481
		c0.07-1.134,0.093-2.333,0.245-3.409c0.473-4.376,1.709-8.949,4.213-13.143c2.442-4.207,6.344-7.813,10.798-9.937
		c4.454-2.164,9.281-3.037,13.89-2.984c4.625,0.045,9.115,0.931,13.323,2.469c1.056,0.375,2.093,0.801,3.114,1.262l0.762,0.352
		l0.382,0.176l0.471,0.237c0.454,0.24,0.779,0.384,1.399,0.745c1.166,0.658,2.062,1.23,3.012,1.892
		c0.939,0.645,1.826,1.327,2.691,2.022c3.442,2.799,6.327,5.944,8.959,9.2c1.308,1.636,2.547,3.307,3.719,5.023
		c0.587,0.858,1.159,1.725,1.717,2.612c0.574,0.916,1.071,1.72,1.685,2.821l-11.722,0.429c0.352-0.754,0.571-1.164,0.857-1.702
		c0.274-0.49,0.544-0.987,0.828-1.458c0.558-0.953,1.145-1.867,1.744-2.772c1.205-1.8,2.51-3.51,3.872-5.173
		c2.749-3.303,5.837-6.328,9.219-9.015c1.693-1.341,3.479-2.567,5.306-3.727l2.937-1.724l1.285-0.664
		c0.453-0.23,1.096-0.516,1.639-0.764c4.294-1.868,8.805-3.042,13.584-3.156c4.736-0.126,9.689,0.78,14.156,3.06
		c4.491,2.226,8.25,5.942,10.663,10.128c1.232,2.089,2.174,4.286,2.838,6.496c0.69,2.209,1.142,4.435,1.396,6.634
		c0.287,2.207,0.315,4.375,0.302,6.522c-0.046,1.319-0.063,1.882-0.18,3.173c-0.088,1.163-0.238,2.226-0.391,3.288
		c-0.344,2.125-0.794,4.219-1.38,6.265c-0.604,2.037-1.311,4.027-2.106,5.968c-1.625,3.862-3.571,7.524-5.832,10.934
		c-4.509,6.821-9.906,12.799-15.698,18.198c-2.933,2.667-5.969,5.189-9.078,7.59c-3.123,2.386-6.282,4.703-9.573,6.813
		c-3.279,2.13-6.611,4.154-10.001,6.064c-3.422,1.859-7.238,3.683-10.799,5.229l-0.38-0.004V308.215z M191.264,308.215l-0.009-0.043
		l0.003-0.003c3.18-2.215,6.292-4.498,9.308-6.897c3.044-2.355,6.015-4.796,8.896-7.321c2.868-2.54,5.713-5.084,8.426-7.753
		c2.716-2.664,5.325-5.417,7.794-8.265c4.993-5.633,9.478-11.662,12.907-18.098c1.692-3.224,3.193-6.497,4.302-9.859
		c1.097-3.359,1.842-6.77,2.168-10.171c0.069-0.857,0.135-1.712,0.143-2.477c0.041-0.634,0.013-2.005-0.01-2.614
		c-0.092-1.708-0.215-3.407-0.529-5.017c-0.262-1.626-0.666-3.183-1.2-4.632c-0.511-1.465-1.181-2.808-1.976-4.005
		c-1.578-2.405-3.639-4.229-6.115-5.368c-2.468-1.148-5.349-1.616-8.314-1.436c-2.947,0.165-6.041,1-8.782,2.274
		c-0.331,0.166-0.575,0.258-0.98,0.474l-1.273,0.688l-2.024,1.262c-1.411,0.939-2.791,1.926-4.104,3.011
		c-2.646,2.134-5.087,4.551-7.26,7.198c-1.071,1.331-2.105,2.697-3.037,4.114c-0.46,0.708-0.912,1.421-1.325,2.136
		c-0.213,0.357-0.396,0.711-0.593,1.061l-0.455,0.88l-5.799,11.236l-5.922-10.806c-0.318-0.579-0.815-1.416-1.258-2.129
		c-0.459-0.741-0.94-1.479-1.432-2.208c-0.984-1.461-2.024-2.881-3.104-4.253c-2.162-2.734-4.52-5.256-7-7.352
		c-0.621-0.518-1.245-1.022-1.882-1.475c-0.61-0.453-1.333-0.918-1.831-1.218c-0.198-0.142-0.737-0.416-1.129-0.632l-0.158-0.085
		l-0.04-0.023c-0.132-0.067,0.135,0.07,0.096,0.051l-0.067-0.033l-0.27-0.13l-0.54-0.263c-0.72-0.343-1.456-0.664-2.202-0.944
		c-2.976-1.167-6.121-1.81-9.17-1.966c-3.056-0.148-5.996,0.349-8.5,1.457c-2.495,1.122-4.603,2.806-6.144,5.173
		c-1.574,2.334-2.59,5.287-3.116,8.503c-0.172,0.82-0.205,1.546-0.322,2.322c-0.047,0.394-0.059,0.935-0.091,1.394l-0.066,1.267
		c-0.052,1.679,0.031,3.37,0.193,5.063c0.368,3.383,1.12,6.781,2.255,10.113c1.134,3.335,2.636,6.593,4.345,9.792
		c1.723,3.191,3.713,6.288,5.884,9.282c2.172,2.997,4.549,5.875,7.025,8.688c2.468,2.827,5.068,5.562,7.775,8.205
		c2.708,2.646,5.534,5.183,8.393,7.706c2.867,2.509,5.827,4.928,8.853,7.275C185.005,303.745,188.1,306.015,191.264,308.215z"/>
	<polygon fill="#231F20" points="213.345,351.09 221.098,10.642 234.337,350.919 	"/>
	<path fill="#231F20" d="M246.922,320.952c6.216-7.864,12.16-15.932,18.02-24.046c5.866-8.112,11.569-16.333,17.067-24.679
		c5.532-8.322,10.86-16.771,15.888-25.376c5.01-8.612,9.759-17.364,13.989-26.312c4.191-8.948,7.926-18.135,10.275-27.518
		c1.151-4.681,1.998-9.42,2.091-14.045c0.142-4.608-0.445-9.152-2.241-12.92c-0.901-1.876-2.004-3.62-3.479-5.042
		c0.057-0.011-0.954-0.916-1.027-0.912c-0.153-0.103-0.443-0.276-0.662-0.358c-0.445-0.158-0.657-0.153-1.088-0.047
		c-0.872,0.203-2.449,1.432-3.73,3.068c-1.335,1.612-2.536,3.588-3.65,5.622c-4.419,8.287-7.472,17.75-10.229,27.155
		c-2.73,9.46-4.964,19.115-6.89,28.828c-1.918,9.719-3.511,19.513-4.791,29.336c-1.27,9.823-2.236,19.684-2.856,29.532
		c-0.588,9.841-0.807,19.703-0.199,29.375c0.32,4.823,0.836,9.612,1.768,14.16c0.467,2.269,1.046,4.476,1.779,6.494
		c0.725,2.014,1.633,3.876,2.641,5.149c0.498,0.628,1,1.11,1.442,1.408c0.447,0.295,0.813,0.415,1.25,0.477
		c0.436,0.06,0.985,0.031,1.662-0.121c0.691-0.194,1.47-0.477,2.289-0.91c3.329-1.756,6.806-4.981,9.943-8.406
		c6.332-6.979,11.899-15.142,17.151-23.439c5.245-8.336,10.138-16.969,14.856-25.707l12.055-22.317l-2.12,25.21
		c-0.612,7.279-1.422,14.352-2.315,21.494c-0.897,7.122-1.981,14.216-3.138,21.299c-2.328,14.161-5.106,28.257-8.441,42.241
		c-3.32,13.985-7.289,27.852-12.16,41.443c-4.925,13.571-10.681,26.936-18.194,39.479c-3.757,6.262-8.031,12.276-12.997,17.774
		c-4.962,5.478-10.668,10.45-17.235,14.184c-3.242,1.928-6.785,3.35-10.384,4.533c-1.828,0.498-3.676,0.961-5.534,1.313
		l-2.815,0.377l-1.408,0.185c-0.471,0.034-0.944,0.034-1.414,0.054c-7.571,0.368-15.042-1.139-21.921-3.718
		c-6.891-2.606-13.3-6.168-19.254-10.276c-1.5-1.009-2.917-2.134-4.373-3.199l-2.162-1.624l-2.07-1.738l-4.125-3.474l-3.951-3.66
		c-2.683-2.38-5.097-5.036-7.641-7.552c-2.485-2.572-4.839-5.264-7.241-7.906l-6.879-8.204l-6.603-8.411l7.123,7.964l7.363,7.718
		c2.566,2.463,5.052,4.997,7.64,7.421c2.653,2.354,5.174,4.854,7.945,7.058l4.074,3.393l4.223,3.188l2.112,1.588l2.189,1.47
		c1.471,0.964,2.888,2.004,4.384,2.915c5.936,3.729,12.222,6.848,18.757,8.994c6.528,2.133,13.362,3.141,20.024,2.553
		c6.679-0.499,13.08-2.816,18.767-6.347c5.707-3.514,10.736-8.18,15.143-13.399c4.414-5.23,8.22-11.023,11.66-17.045
		c6.842-12.086,12.101-25.142,16.558-38.45c2.204-6.671,4.181-13.428,6.017-20.224c1.856-6.79,3.544-13.639,5.074-20.527
		c3.067-13.774,5.595-27.686,7.68-41.664c1.054-6.989,1.949-14,2.819-21.012c0.842-6.994,1.614-14.083,2.158-20.996l9.935,2.889
		c-4.758,8.916-9.703,17.753-15.09,26.405c-5.418,8.64-11.105,17.161-18.206,25.08c-3.614,3.915-7.453,7.804-13.01,10.758
		c-1.404,0.72-2.972,1.351-4.703,1.791c-1.766,0.408-3.747,0.591-5.793,0.292c-2.038-0.288-4.065-1.099-5.696-2.211
		c-1.633-1.111-2.908-2.438-3.952-3.772c-2.065-2.702-3.268-5.453-4.243-8.141c-0.958-2.692-1.629-5.354-2.163-7.993
		c-1.05-5.276-1.568-10.477-1.887-15.648c-0.595-10.337-0.303-20.543,0.349-30.694c0.653-10.15,1.794-20.232,3.254-30.257
		c1.457-10.025,3.231-19.995,5.341-29.907c2.122-9.906,4.553-19.761,7.524-29.512c1.479-4.879,3.138-9.719,5.006-14.517
		c1.894-4.795,3.967-9.554,6.629-14.202c1.353-2.319,2.804-4.623,4.714-6.837c0.939-1.106,2.018-2.192,3.318-3.199
		c1.299-0.993,2.876-1.954,4.892-2.441c1.999-0.513,4.409-0.287,6.253,0.564c0.929,0.413,1.722,0.893,2.56,1.557
		c0.478,0.362,0.644,0.543,0.877,0.758l0.343,0.321c-0.006-0.006,0.332,0.321,0.233,0.232l0.096,0.104l0.181,0.208
		c2.074,2.132,3.659,4.718,4.837,7.378c1.175,2.675,1.923,5.479,2.267,8.248c0.371,2.771,0.467,5.528,0.293,8.214
		c-0.285,5.399-1.424,10.547-2.83,15.542c-2.873,9.98-7.067,19.309-11.675,28.34c-4.623,9.031-9.797,17.713-15.261,26.181
		c-5.461,8.471-11.196,16.738-17.12,24.854C272.92,290.38,260.309,306.02,246.922,320.952z"/>
	<path fill="#231F20" d="M332.069,359.279c0,0,1.927-2.897,5.535-8.33c3.583-5.447,8.707-13.526,15.13-23.853
		c6.407-10.338,13.969-23.025,22.24-37.774c8.214-14.77,17.079-31.686,25.275-50.675c4.039-9.507,7.887-19.569,10.762-30.173
		c1.428-5.295,2.574-10.738,3.217-16.221c0.612-5.462,0.688-11.061-0.563-16.117c-0.617-2.52-1.582-4.866-2.954-6.852
		c-0.686-0.995-1.465-1.904-2.344-2.72l-0.326-0.305c0.085,0.066-0.268-0.226-0.301-0.248c0.005,0.015-0.143-0.081-0.155-0.081
		c-0.086-0.015,0.271,0.128,0.592,0.064c0.32-0.062,0.313-0.133,0.121,0.054c-0.178,0.164-0.476,0.518-0.763,0.95
		c-0.593,0.875-1.183,2.067-1.706,3.323c-1.055,2.537-1.915,5.387-2.682,8.29c-1.523,5.84-2.689,11.981-3.736,18.206
		c-1.066,6.23-1.999,12.576-2.859,18.995c-3.417,25.696-5.823,52.519-8.421,79.761c-2.627,27.247-5.17,54.976-8.228,82.706
		c-1.51,13.871-3.289,27.726-5.342,41.529c-2.11,13.81-4.393,27.55-8.01,41.213c-0.928,3.422-1.95,6.837-3.215,10.27
		c-1.307,3.434-2.702,6.868-5.187,10.441c-0.641,0.891-1.373,1.801-2.29,2.694c-0.24,0.229-0.469,0.454-0.74,0.673l-0.436,0.362
		l-0.25,0.193l-1.133,0.857c-1.604,1.164-3.28,2.274-5.447,3.219c-1.085,0.46-2.299,0.894-3.799,1.11
		c-1.469,0.218-3.336,0.211-5.228-0.501c-1.903-0.683-3.486-2.068-4.456-3.397c-0.976-1.338-1.534-2.637-1.917-3.813
		c-0.751-2.366-0.947-4.42-1.055-6.386c-0.09-1.961-0.026-3.819,0.098-5.641c0.265-3.626,0.788-7.087,1.423-10.481
		c1.279-6.782,3.002-13.293,4.908-19.667c7.771-25.414,18.042-48.848,30.325-69.892c3.1-5.245,6.357-10.325,9.896-15.156
		c3.553-4.823,7.339-9.438,11.815-13.517c2.248-2.026,4.692-3.906,7.503-5.441c2.787-1.501,6.103-2.718,9.787-2.571
		c1.818,0.062,3.656,0.522,5.289,1.268c1.634,0.75,3.047,1.77,4.247,2.89c2.39,2.256,4.003,4.819,5.306,7.358
		c2.565,5.112,3.99,10.255,5.132,15.267c1.117,5.023,1.858,9.939,2.427,14.729c1.084,9.591,1.49,18.676,1.678,27.197
		c0.36,17.05-0.286,31.856-0.939,44.031c-0.647,12.176-1.49,21.716-2.042,28.217c-0.59,6.498-0.903,9.968-0.903,9.968
		s0.086-3.481,0.252-10.001c0.148-6.522,0.274-16.09,0.314-28.249c-0.021-12.159-0.188-26.93-1.242-43.77
		c-0.562-8.408-1.369-17.348-2.839-26.611c-0.726-4.626-1.602-9.341-2.825-14.031c-1.226-4.669-2.763-9.394-5.046-13.546
		c-1.138-2.057-2.495-3.946-4.044-5.293c-1.563-1.357-3.201-2.037-4.973-2.035c-1.78-0.016-3.822,0.7-5.823,1.887
		c-2.012,1.181-3.969,2.791-5.845,4.579c-3.763,3.598-7.188,7.945-10.396,12.552c-3.208,4.625-6.207,9.558-9.06,14.679
		c-5.697,10.257-10.84,21.255-15.523,32.717c-4.716,11.445-9.02,23.381-12.521,35.681c-1.738,6.147-3.278,12.395-4.363,18.648
		c-0.534,3.122-0.949,6.254-1.121,9.284c-0.079,1.507-0.102,2.993-0.014,4.374c0.082,1.368,0.292,2.67,0.586,3.498
		c0.136,0.417,0.303,0.661,0.318,0.676c0.037,0.008-0.207-0.242-0.516-0.359c-0.313-0.119-0.439-0.07-0.246-0.107
		c0.168-0.022,0.567-0.136,1.029-0.343c0.933-0.402,2.113-1.141,3.235-1.973l0.89-0.684l0.249-0.197
		c-0.053,0.039,0.037-0.036,0.049-0.045c0.06-0.048,0.131-0.121,0.204-0.188c0.291-0.286,0.635-0.696,0.978-1.187
		c1.409-2.006,2.687-4.899,3.759-7.836c1.082-2.971,2.01-6.113,2.857-9.307c3.339-12.837,5.549-26.39,7.553-39.978
		c1.981-13.614,3.584-27.379,5.209-41.154c3.176-27.562,5.85-55.242,8.61-82.504c2.831-27.259,5.749-54.101,9.547-80.074
		c1.958-12.998,4.039-25.745,7.572-38.274c0.913-3.14,1.922-6.262,3.322-9.43c0.717-1.588,1.508-3.183,2.678-4.845
		c0.596-0.829,1.278-1.681,2.254-2.53c0.959-0.826,2.316-1.728,4.152-2.06c1.836-0.357,3.771,0.123,5.035,0.815
		c0.662,0.355,1.157,0.683,1.759,1.171l0.566,0.499l0.501,0.483c1.324,1.292,2.497,2.733,3.491,4.26
		c1.997,3.059,3.239,6.417,3.969,9.712c1.443,6.633,1.107,13.022,0.308,19.051c-0.827,6.043-2.298,11.774-3.961,17.289
		c-3.376,11.019-7.66,21.177-12.088,30.731c-8.905,19.096-18.623,35.696-27.478,50.211c-8.871,14.509-17.167,26.784-24.079,36.823
		c-6.911,10.043-12.617,17.734-16.497,22.983C334.168,356.502,332.069,359.279,332.069,359.279z"/>
	<path fill="#231F20" d="M459.611,448.091c0,3.886-3.146,7.03-7.026,7.03c-3.883,0-7.026-3.145-7.026-7.03
		c0-3.879,3.144-7.023,7.026-7.023C456.465,441.067,459.611,444.212,459.611,448.091z"/>
</g>
</svg>
