<?xml version="1.0" encoding="utf-8"?>
<!-- Generator: Adobe Illustrator 16.0.0, SVG Export Plug-In . SVG Version: 6.00 Build 0)  -->
<!DOCTYPE svg PUBLIC "-//W3C//DTD SVG 1.1//EN" "http://www.w3.org/Graphics/SVG/1.1/DTD/svg11.dtd">
<svg version="1.1" id="Layer_1" xmlns="http://www.w3.org/2000/svg" xmlns:xlink="http://www.w3.org/1999/xlink" x="0px" y="0px"
	 width="462.292px" height="45.131px" viewBox="0 0 462.292 45.131" enable-background="new 0 0 462.292 45.131"
	 xml:space="preserve">
<g>
	<g>
		<path d="M462.292,39.044c0,0-1.998,0.128-5.744,0.369c-3.746,0.224-9.24,0.584-16.24,0.91c-6.998,0.335-15.5,0.698-25.258,0.989
			c-9.758,0.3-20.773,0.513-32.793,0.457c-12.02-0.039-25.045-0.286-38.813-0.944c-13.766-0.659-28.281-1.711-43.217-3.657
			c-7.467-0.966-15.043-2.126-22.662-3.605c-7.621-1.481-15.293-3.26-22.9-5.592c-3.801-1.171-7.586-2.482-11.311-4.021
			c-3.721-1.547-7.395-3.301-10.873-5.53c-1.734-1.123-3.422-2.362-4.969-3.856c-0.771-0.746-1.504-1.566-2.156-2.494
			c-0.641-0.935-1.225-1.983-1.516-3.254c-0.311-1.241-0.205-2.814,0.559-4.074c0.754-1.259,1.926-2.047,3.049-2.521
			c1.139-0.477,2.289-0.697,3.41-0.79c0.281-0.021,0.563-0.037,0.84-0.042l0.447-0.005l0.375,0.008
			c0.578,0.02,1.168,0.074,1.74,0.174c1.152,0.209,2.363,0.598,3.457,1.431c1.1,0.808,1.949,2.24,2.041,3.664
			c0.125,1.421-0.275,2.674-0.781,3.733c-0.518,1.068-1.172,1.988-1.879,2.825c-1.418,1.67-3.037,3.036-4.715,4.265
			c-1.684,1.225-3.436,2.308-5.223,3.3c-7.174,3.929-14.791,6.604-22.411,8.846c-15.283,4.402-30.708,6.902-45.651,8.709
			c-14.955,1.8-29.485,2.658-43.257,3.163c-13.775,0.49-26.804,0.561-38.823,0.424C65,41.805,53.989,41.403,44.237,40.951
			c-9.752-0.451-18.247-0.961-25.239-1.42c-6.993-0.45-12.479-0.912-16.221-1.203c-3.74-0.311-5.735-0.476-5.735-0.476
			s1.999,0.105,5.747,0.303c3.749,0.174,9.247,0.429,16.244,0.754c13.994,0.62,34,1.238,57.996,1.207
			c23.984-0.065,52.015-0.956,81.734-4.56c14.833-1.86,30.131-4.419,45.14-8.817c7.473-2.23,14.927-4.905,21.739-8.682
			c3.357-1.903,6.658-4.101,9.027-6.881c1.148-1.35,2.039-3.014,1.904-4.219c-0.059-0.586-0.313-1.021-0.814-1.415
			c-0.504-0.387-1.244-0.662-2.055-0.799c-0.416-0.069-0.824-0.104-1.246-0.12l-0.375-0.006l-0.305,0.007
			c-0.221,0.004-0.441,0.018-0.658,0.035c-0.869,0.067-1.707,0.239-2.418,0.534c-0.711,0.294-1.258,0.721-1.539,1.19
			c-0.275,0.468-0.357,1.031-0.199,1.728c0.313,1.402,1.463,2.911,2.766,4.18c1.32,1.291,2.855,2.438,4.461,3.488
			c3.23,2.092,6.756,3.805,10.352,5.318c3.604,1.508,7.297,2.808,11.021,3.974c14.936,4.609,30.219,7.287,45.031,9.301
			c14.836,1.949,29.27,3.216,42.98,4.075c13.711,0.849,26.703,1.278,38.699,1.486c11.996,0.188,23,0.221,32.752,0.161
			c9.754-0.066,18.256-0.234,25.258-0.408c7.002-0.194,12.504-0.348,16.256-0.452C460.29,39.11,462.292,39.044,462.292,39.044z"/>
	</g>
	<path d="M230.667,35.354c0-0.135,0.113-0.291-0.184-0.453c-0.293-0.165-0.222-0.341-0.505-0.524
		c-0.285-0.183-0.378-0.383-0.649-0.589c-0.27-0.208-0.442-0.427-0.696-0.657c-0.504-0.464-0.928-0.98-1.32-1.568
		c-0.391-0.587-1.08-1.259-1.205-1.996c-0.029-0.184-0.44-0.37-0.44-0.559v-0.14c0-0.044,0.404-0.08,0.406-0.13
		c0.006-0.098,0.212-0.203,0.224-0.297c0.041-0.38,0.251-0.779,0.47-1.144c0.213-0.366,0.603-0.68,0.989-0.864
		c0.389-0.188,0.834-0.266,1.234-0.26c0.402,0.004,0.807,0.081,1.172,0.214c0.092,0.033,0.189,0.07,0.277,0.109l0.068,0.031
		l0.035,0.016l0.042,0.02c0.039,0.021,0.07,0.035,0.123,0.065c0.102,0.059,0.18,0.108,0.262,0.165
		c0.082,0.056,0.16,0.116,0.234,0.176c0.301,0.245,0.553,0.518,0.779,0.801c0.115,0.143,0.223,0.288,0.324,0.438
		c0.053,0.073,0.102,0.149,0.148,0.227c0.051,0.079,0.096,0.149,0.148,0.246l-1.02,0.038c0.029-0.067,0.047-0.103,0.074-0.15
		c0.023-0.042,0.047-0.085,0.07-0.126c0.051-0.083,0.1-0.162,0.152-0.242c0.105-0.156,0.219-0.305,0.338-0.45
		c0.24-0.287,0.508-0.551,0.803-0.783c0.146-0.116,0.303-0.224,0.461-0.324l0.256-0.151l0.111-0.057
		c0.039-0.021,0.096-0.045,0.143-0.066c0.375-0.164,0.768-0.266,1.184-0.275c0.41-0.011,0.842,0.067,1.23,0.266
		c0.391,0.195,0.719,0.518,0.928,0.883c0.109,0.182,0.189,0.373,0.248,0.565c0.061,0.192,0.1,0.386,0.121,0.577
		c0.025,0.192,0.027,0.381,0.027,0.567c-0.004,0.115-0.006,0.164-0.016,0.276c-0.01,0.102-0.021,0.192-0.035,0.285
		c-0.029,0.186-0.068,0.368-0.119,0.546c-0.053,0.178-0.115,0.351-0.184,0.52c-0.141,0.336-0.311,0.655-0.508,0.951
		c-0.393,0.594-0.863,1.115-1.365,1.584c-0.258,0.233-0.521,0.451-0.791,0.66c-0.271,0.209-0.547,0.41-0.834,0.594
		c-0.285,0.186-0.574,0.853-0.869,1.02c-0.297,0.162-0.6,0.945-0.908,0.945h-1.436V35.354z M231.667,35.354v-0.004l0,0
		c0-0.192,0.766-0.392,1.027-0.6c0.268-0.205,0.634-0.418,0.886-0.638c0.248-0.221,0.55-0.443,0.788-0.676
		c0.234-0.231,0.489-0.471,0.704-0.719c0.436-0.49,0.838-1.015,1.137-1.574c0.148-0.281,0.285-0.566,0.381-0.858
		c0.096-0.293,0.164-0.59,0.193-0.887c0.004-0.073,0.014-0.148,0.014-0.215c0.002-0.055,0-0.175,0-0.228
		c-0.01-0.147-0.017-0.296-0.046-0.437c-0.023-0.141-0.057-0.276-0.104-0.403c-0.045-0.127-0.104-0.245-0.172-0.348
		c-0.139-0.209-0.316-0.368-0.533-0.467c-0.213-0.1-0.465-0.142-0.723-0.126c-0.258,0.014-0.525,0.088-0.764,0.198
		c-0.031,0.015-0.051,0.022-0.086,0.042l-0.111,0.059l-0.176,0.11c-0.123,0.081-0.244,0.167-0.357,0.262
		c-0.23,0.186-0.441,0.396-0.633,0.627c-0.092,0.116-0.182,0.235-0.264,0.357c-0.039,0.062-0.078,0.125-0.115,0.187
		c-0.018,0.031-0.033,0.062-0.051,0.093l-0.041,0.076l-0.506,0.977l-0.514-0.938c-0.027-0.051-0.07-0.124-0.109-0.186
		c-0.039-0.065-0.082-0.13-0.125-0.192c-0.084-0.128-0.176-0.252-0.27-0.371c-0.188-0.237-0.393-0.458-0.609-0.64
		c-0.055-0.045-0.107-0.089-0.164-0.128c-0.053-0.04-0.115-0.08-0.16-0.106c-0.018-0.013-0.063-0.036-0.098-0.056l-0.014-0.007
		l-0.004-0.002c-0.012-0.005,0.012,0.006,0.01,0.004l-0.006-0.003l-0.023-0.011l-0.047-0.021c-0.063-0.031-0.127-0.06-0.191-0.083
		c-0.26-0.103-0.533-0.158-0.799-0.171c-0.266-0.014-0.521,0.029-0.74,0.126c-0.217,0.099-0.4,0.244-0.535,0.449
		c-0.137,0.205-0.225,0.461-0.27,0.741c-0.016,0.071-0.02,0.135-0.029,0.202c-0.004,0.034-0.004,0.081-0.008,0.121l-0.006,0.11
		c-0.004,0.146,0.004,0.294,0.018,0.44c0.031,0.294,0.098,0.591,0.195,0.88c0.1,0.29,0.23,0.575,0.379,0.854
		c0.15,0.276,0.322,0.547,0.512,0.807c0.189,0.261,0.396,0.513,0.611,0.757c0.215,0.246,0.441,0.483,0.678,0.714
		c0.234,0.23,0.48,0.451,0.729,0.671c0.25,0.219,0.289,0.429,0.553,0.633C231.34,34.966,231.667,35.163,231.667,35.354z"/>
	<g>
		<path d="M144.774,20.669c0,0-0.205-0.028-0.602-0.084c-0.397-0.049-0.985-0.156-1.757-0.218c-1.535-0.16-3.821-0.305-6.67,0.021
			c-1.416,0.196-2.979,0.525-4.544,1.203c-1.56,0.676-3.128,1.704-4.345,3.209c-2.493,2.977-3.005,7.926-0.916,12.191
			c1.023,2.126,2.658,4.076,4.791,5.417c2.131,1.339,4.751,1.986,7.419,1.798c2.671-0.183,5.364-1.115,7.853-2.546
			c2.499-1.419,4.859-3.256,7.04-5.361c2.177-2.095,4.212-4.525,6.528-6.791c2.272-2.299,4.66-4.521,7.201-6.628
			c5.056-4.216,10.635-8.1,16.877-10.785c3.119-1.325,6.388-2.366,9.761-2.91c1.687-0.271,3.396-0.398,5.106-0.408
			c1.711,0.017,3.422,0.187,5.1,0.523c3.358,0.655,6.557,2.134,9.184,4.274c2.62,2.141,4.663,4.983,5.655,8.17
			c1.006,3.166,0.895,6.702-0.514,9.642c-1.385,2.962-3.919,5.11-6.604,6.387c-2.718,1.269-5.57,1.817-8.3,1.997
			c-1.367,0.101-2.711,0.089-4.023,0.036l-0.246-0.008l-0.062-0.002l-0.101-0.008l-0.12-0.014c-0.169-0.024-0.296-0.021-0.5-0.069
			c-0.397-0.074-0.744-0.193-1.077-0.326c-0.666-0.284-1.247-0.699-1.744-1.169c-3.915-3.912-3.105-10.353,0.525-12.797
			c0.865-0.619,1.8-1.07,2.744-1.313c1.015-0.251,2.008-0.185,2.892,0.137c1.769,0.683,2.82,2.171,3.354,3.538
			c0.539,1.394,0.566,2.806,0.18,3.901c-0.374,1.114-1.215,1.803-1.934,2.09c-0.729,0.313-1.342,0.333-1.739,0.356
			c-0.401-0.004-0.608-0.006-0.608-0.006s0.207-0.009,0.607-0.024c0.393-0.043,1-0.096,1.691-0.435
			c0.684-0.314,1.437-1.004,1.734-2.063c0.311-1.043,0.212-2.366-0.335-3.656c-0.544-1.268-1.593-2.594-3.154-3.122
			c-0.765-0.253-1.66-0.264-2.469-0.035c-0.873,0.257-1.71,0.708-2.463,1.289c-1.509,1.171-2.5,3.105-2.531,5.237
			c-0.05,2.099,0.728,4.435,2.379,5.958c0.412,0.372,0.876,0.686,1.383,0.887c0.259,0.096,0.517,0.174,0.75,0.215
			c0.107,0.034,0.305,0.034,0.453,0.054l0.12,0.011c0.057,0.005-0.009,0,0.02,0h0.059l0.238,0.001
			c1.268,0.019,2.559-0.003,3.858-0.133c2.596-0.236,5.251-0.835,7.674-2.042c2.396-1.221,4.507-3.146,5.607-5.666
			c1.115-2.507,1.141-5.479,0.254-8.207c-0.893-2.74-2.711-5.218-5.053-7.078c-2.347-1.867-5.213-3.131-8.248-3.717
			c-1.518-0.297-3.075-0.446-4.645-0.455c-1.57,0.017-3.148,0.141-4.717,0.398c-3.138,0.521-6.219,1.513-9.182,2.787
			c-5.941,2.556-11.383,6.269-16.331,10.368c-2.484,2.042-4.839,4.224-7.093,6.428c-2.283,2.17-4.337,4.564-6.661,6.746
			c-2.313,2.164-4.817,4.101-7.551,5.565c-2.719,1.47-5.712,2.439-8.729,2.567c-3.013,0.139-6.002-0.683-8.367-2.26
			c-2.371-1.577-4.122-3.795-5.188-6.162c-1.071-2.371-1.472-4.921-1.193-7.281s1.257-4.508,2.659-6.082
			c1.399-1.589,3.127-2.609,4.791-3.249c1.672-0.641,3.294-0.909,4.749-1.049c2.925-0.227,5.208,0.084,6.741,0.322
			c0.771,0.104,1.349,0.245,1.744,0.315C144.571,20.629,144.774,20.669,144.774,20.669z"/>
	</g>
	<g>
		<path d="M317.76,20.669c0,0,0.203-0.04,0.598-0.118c0.395-0.07,0.973-0.211,1.744-0.315c1.531-0.238,3.814-0.549,6.74-0.322
			c1.455,0.14,3.076,0.408,4.748,1.049c1.662,0.64,3.391,1.66,4.791,3.249c1.402,1.574,2.379,3.722,2.658,6.082
			s-0.121,4.909-1.191,7.281c-1.066,2.367-2.818,4.585-5.188,6.162c-2.365,1.577-5.355,2.398-8.367,2.26
			c-3.018-0.128-6.01-1.098-8.73-2.567c-2.732-1.464-5.236-3.401-7.551-5.565c-2.324-2.182-4.377-4.575-6.66-6.745
			c-2.254-2.205-4.609-4.387-7.094-6.429c-4.947-4.1-10.391-7.813-16.33-10.368c-2.963-1.274-6.045-2.267-9.184-2.787
			c-1.568-0.258-3.146-0.382-4.717-0.398c-1.57,0.009-3.127,0.158-4.645,0.455c-3.035,0.586-5.9,1.85-8.248,3.717
			c-2.342,1.86-4.16,4.338-5.055,7.078c-0.885,2.729-0.859,5.7,0.254,8.207c1.102,2.52,3.213,4.445,5.609,5.666
			c2.422,1.208,5.078,1.806,7.674,2.042c1.299,0.13,2.59,0.151,3.857,0.133l0.238-0.001h0.059c0.029,0-0.037,0.005,0.02,0
			l0.121-0.011c0.148-0.02,0.346-0.02,0.451-0.054c0.234-0.041,0.492-0.119,0.752-0.215c0.506-0.201,0.971-0.515,1.383-0.887
			c1.65-1.523,2.43-3.86,2.379-5.958c-0.031-2.133-1.021-4.067-2.531-5.237c-0.752-0.581-1.59-1.032-2.463-1.289
			c-0.809-0.229-1.705-0.218-2.469,0.035c-1.561,0.528-2.609,1.854-3.154,3.122c-0.547,1.29-0.646,2.613-0.336,3.656
			c0.299,1.059,1.051,1.748,1.734,2.063c0.691,0.339,1.299,0.392,1.691,0.435c0.4,0.016,0.607,0.024,0.607,0.024
			s-0.207,0.002-0.607,0.006c-0.398-0.023-1.012-0.044-1.74-0.356c-0.719-0.287-1.559-0.976-1.934-2.089
			c-0.387-1.097-0.359-2.509,0.18-3.902c0.535-1.367,1.586-2.855,3.354-3.537c0.885-0.322,1.877-0.389,2.893-0.138
			c0.943,0.242,1.879,0.694,2.744,1.313c3.631,2.444,4.439,8.885,0.525,12.797c-0.498,0.47-1.078,0.884-1.744,1.169
			c-0.332,0.133-0.68,0.252-1.076,0.326c-0.203,0.049-0.332,0.045-0.5,0.069l-0.121,0.014l-0.1,0.008l-0.063,0.002l-0.246,0.008
			c-1.313,0.053-2.656,0.064-4.023-0.036c-2.73-0.18-5.582-0.729-8.301-1.997c-2.686-1.276-5.219-3.425-6.605-6.387
			c-1.406-2.939-1.52-6.476-0.514-9.642c0.994-3.187,3.037-6.029,5.656-8.17c2.627-2.141,5.826-3.619,9.186-4.274
			c1.678-0.337,3.387-0.507,5.1-0.523c1.709,0.01,3.418,0.138,5.105,0.408c3.373,0.544,6.643,1.585,9.762,2.91
			c6.242,2.686,11.82,6.569,16.877,10.785c2.541,2.106,4.928,4.329,7.201,6.628c2.314,2.266,4.352,4.696,6.527,6.791
			c2.182,2.105,4.541,3.942,7.041,5.361c2.488,1.431,5.18,2.363,7.852,2.546c2.668,0.188,5.289-0.459,7.42-1.798
			c2.131-1.341,3.768-3.291,4.791-5.417c2.09-4.266,1.576-9.215-0.916-12.191c-1.217-1.505-2.787-2.533-4.346-3.209
			c-1.566-0.678-3.129-1.007-4.545-1.203c-2.85-0.326-5.135-0.182-6.67-0.021c-0.771,0.062-1.359,0.169-1.758,0.218
			C317.965,20.641,317.76,20.669,317.76,20.669z"/>
	</g>
</g>
</svg>
